<svg width="600" height="500" viewBox="0 0 600 500" fill="none" xmlns="http://www.w3.org/2000/svg">
<rect width="600" height="500" fill="#F5F5F4"/>
<path d="M107.06 233.074C109.42 233.074 111.333 231.161 111.333 228.801C111.333 226.441 109.42 224.528 107.06 224.528C104.7 224.528 102.787 226.441 102.787 228.801C102.787 231.161 104.7 233.074 107.06 233.074Z" stroke="black" stroke-width="2"/>
<path d="M115.435 229.236C124.053 228.349 137.576 229.398 139.174 236.064C140.773 242.731 134.669 245.169 131.418 245.555C119.039 247.522 102.625 246.596 102.625 236.064" stroke="black" stroke-width="2" stroke-linecap="round"/>
<path d="M112.321 239.318C112.865 239.318 113.307 238.876 113.307 238.332C113.307 237.787 112.865 237.346 112.321 237.346C111.776 237.346 111.335 237.787 111.335 238.332C111.335 238.876 111.776 239.318 112.321 239.318Z" stroke="black" stroke-width="2"/>
<path d="M121.851 238.332C121.851 238.811 121.405 239.318 120.701 239.318C119.997 239.318 119.551 238.811 119.551 238.332C119.551 237.853 119.997 237.346 120.701 237.346C121.405 237.346 121.851 237.853 121.851 238.332Z" stroke="black" stroke-width="2"/>
<path d="M129.082 239.318C129.627 239.318 130.069 238.876 130.069 238.332C130.069 237.787 129.627 237.346 129.082 237.346C128.538 237.346 128.096 237.787 128.096 238.332C128.096 238.876 128.538 239.318 129.082 239.318Z" stroke="black" stroke-width="2"/>
<path d="M431.302 112.776C433.481 112.776 435.246 111.01 435.246 108.832C435.246 106.654 433.481 104.888 431.302 104.888C429.124 104.888 427.358 106.654 427.358 108.832C427.358 111.01 429.124 112.776 431.302 112.776Z" stroke="black" stroke-width="2"/>
<path d="M439.051 105.385C441.941 105.385 450.199 105.385 454.084 105.385C457.231 105.385 458.746 106.081 458.746 110.953C458.746 115.687 458.707 121.819 458.746 124.294C458.773 126.034 457.907 127.96 455.016 128.238C452.126 128.517 440.527 128.354 435.088 128.238C433.068 128.238 429.494 127.093 429.494 122.438V117.218" stroke="black" stroke-width="2" stroke-linecap="round"/>
<path d="M437.053 113.598L444.284 118.528" stroke="black" stroke-width="2" stroke-linecap="round"/>
<path d="M444.286 118.529L457.433 106.368" stroke="black" stroke-width="2" stroke-linecap="round"/>
<path d="M447.617 115.57L451.21 119.186L454.802 122.801" stroke="black" stroke-width="2" stroke-linecap="round"/>
<path d="M434.424 122.801L439.725 115.57" stroke="black" stroke-width="2" stroke-linecap="round"/>
<path d="M460.207 359.281C459.114 360.375 458.173 361.318 457.524 361.967C455.833 363.661 454.057 362.673 453.38 361.967L442.591 351.572C440.998 350.091 439.652 348.629 433.632 342.886C433.015 342.269 432.039 340.693 433.063 339.326C434.087 337.959 439.842 330.782 442.591 327.364C443.425 326.156 445.238 324.718 447.55 326.868C449.541 328.719 456.367 335.127 462.198 339.999" stroke="black" stroke-width="2" stroke-linecap="round"/>
<path d="M442.477 327.732C442.816 333.967 445.104 344.004 456.939 347.782" stroke="black" stroke-width="2" stroke-linecap="round"/>
<path d="M472.488 348.266C471.945 346.887 467.781 345.282 466.207 348.266C464.585 351.344 465.825 353.937 466.88 354.446C468.228 355.095 470.207 355.434 472.297 351.698" stroke="black" stroke-width="2" stroke-linecap="round"/>
<path d="M472.833 346.348C472.711 347.068 472.586 347.371 472.487 348.267C472.359 349.434 472.277 350.658 472.297 351.699C472.336 353.525 472.698 354.785 473.723 354.177C475.781 352.957 476.892 351.956 477.188 350.936C477.681 349.22 477.684 345.935 474.91 343.787C471.564 341.193 467.791 341.264 464.823 343.787C461.876 346.291 461.07 350.299 461.231 352.379C461.408 354.653 463.105 359.539 468.645 359.616C474.183 359.692 477.184 356.706 477.644 355.308" stroke="black" stroke-width="2" stroke-linecap="round"/>
<path d="M180.849 307.213C179.668 302.651 175.744 294.238 169.504 297.082C163.264 299.925 166.904 305.02 169.504 307.213C171.254 308.397 175.015 309.665 176.063 305.257C177.111 300.85 172.695 299.037 171.454 300.992C170.8 301.762 170.06 303.693 172.34 305.257" stroke="black" stroke-width="2" stroke-linecap="round"/>
<path d="M208.696 85.9775C208.406 84.3453 210.114 83.0897 211.586 83.8526L214.529 85.3779C215.698 85.9839 217.09 85.9762 218.252 85.3569L221.178 83.797C222.64 83.0177 224.362 84.2536 224.091 85.8885L223.549 89.1601C223.334 90.4588 223.772 91.7809 224.72 92.6944L227.107 94.9948C228.301 96.145 227.658 98.1642 226.019 98.4122L222.741 98.9076C221.439 99.1043 220.318 99.9291 219.742 101.113L218.292 104.094C217.566 105.585 215.446 105.597 214.704 104.115L213.22 101.151C212.631 99.9734 211.499 99.1612 210.196 98.9793L206.912 98.5211C205.27 98.2919 204.604 96.2801 205.784 95.1164L208.145 92.7886C209.083 91.8643 209.505 90.5375 209.275 89.2413L208.696 85.9775Z" stroke="black" stroke-width="2"/>
<path d="M310.184 233.045V260.983" stroke="black" stroke-width="2" stroke-linecap="round"/>
<path d="M331.22 236.332V262.955" stroke="black" stroke-width="2" stroke-linecap="round"/>
<path d="M282.019 357.316C275.073 358.181 258.812 361.371 255.251 367.857C254.182 369.803 252.942 374.539 256.533 377.911C260.123 381.285 266.685 380.398 269.516 379.533L286.026 372.884" stroke="black" stroke-width="2" stroke-linecap="round"/>
<path d="M376.675 308.366C363.714 308.783 306.471 336.496 279.47 350.3C277.171 365.511 286.874 376.433 292.012 379.993C318.927 372.179 374.166 356.343 379.811 355.509C385.455 354.676 391.047 350.648 393.137 348.738C407.77 331.651 396.969 317.135 389.74 312.012C384.593 308.366 380.151 308.254 376.675 308.366Z" fill="black"/>
<path d="M255.272 304.489C264.455 305.102 304.514 320.627 323.495 328.764L280.087 350.455C260.66 356.153 248.726 354.276 245.081 353.048C224.043 342.912 232.286 317.907 240.645 308.644C246.032 304.059 251.982 304.27 255.272 304.489Z" fill="black"/>
<path d="M357.476 360.271C363.216 363.03 366.319 366.643 367.892 369.607C371.264 377.324 365.21 381.962 358.297 379.781C354.477 378.576 353.577 377.768 351.554 376.091C350.527 375.239 345.732 370.784 340.258 365.522" stroke="black" stroke-width="2" stroke-linecap="round"/>
<path d="M247.65 235.564L251.323 302.313C251.615 307.614 255.999 311.763 261.308 311.763H371.178C376.701 311.763 381.178 307.286 381.178 301.763V233.484C381.178 227.909 376.618 223.41 371.043 223.485L257.5 225.016C251.815 225.092 247.338 229.887 247.65 235.564Z" fill="black"/>
<rect x="251.021" y="312.914" width="130.157" height="6.24488" rx="3.12244" fill="black"/>
<path d="M331.548 188.673C342.997 188.509 368.196 197.219 378.22 224.663" stroke="black" stroke-width="2" stroke-linecap="round"/>
<path d="M306.404 188.511C280.274 193.605 267.785 204.78 257.924 226.309" stroke="black" stroke-width="2" stroke-linecap="round"/>
<path d="M393.833 214.504L400.242 203.822" stroke="black" stroke-width="2" stroke-linecap="round"/>
<path d="M400.241 217.461L408.951 210.23" stroke="black" stroke-width="2" stroke-linecap="round"/>
<path d="M401.557 222.392C403.255 223.049 407.111 223.674 408.952 220.913" stroke="black" stroke-width="2" stroke-linecap="round"/>
<path d="M233.438 212.505L223.578 202.316" stroke="black" stroke-width="2" stroke-linecap="round"/>
<path d="M243.462 210.859L237.546 195.575" stroke="black" stroke-width="2" stroke-linecap="round"/>
<path d="M230.973 218.257L223.578 215.463" stroke="black" stroke-width="2" stroke-linecap="round"/>
<path d="M384.794 243.101C390.875 252.632 397.777 263.972 384.794 285.308" stroke="black" stroke-width="2" stroke-linecap="round"/>
<path d="M331.712 189.496C333.191 185.223 331.844 182.348 330.529 181.8C322.641 189.031 310.677 186.347 306.239 181.964C304.662 183.41 305.582 187.688 306.239 189.003C314.785 198.469 326.946 193.166 331.712 189.496Z" fill="black"/>
<path d="M296.708 215.79L297.371 214.773C301.092 209.062 308.333 206.782 314.655 209.331V209.331C320.331 211.62 326.835 210.032 330.818 205.385L335.985 199.356" stroke="black" stroke-width="2" stroke-linecap="round"/>
<path d="M245.27 249.148C242.805 254.955 239.88 269.033 247.899 278.894" stroke="black" stroke-width="2" stroke-linecap="round"/>
<path d="M354.372 122.316C350.757 135.298 348.949 136.449 343.69 142.201C343.69 136.516 342.714 126.975 342.714 123.002C325.495 123.002 310.963 115.973 305.849 112.458C306.032 124.377 294.858 132.17 294.858 132.17C294.858 132.17 296.461 136.984 297.377 147.757C298.11 156.375 296.003 154.71 294.858 152.799C291.561 142.164 286.157 145.006 283.867 147.757C255.769 102.102 298.979 93.2804 307.223 94.1209C313.451 88.8031 322.137 84.6358 328.243 84.0246C350.264 81.8202 360.235 101.264 354.372 122.316Z" fill="black"/>
<path d="M295.243 160.926C298.202 178.985 318.056 191.971 332.384 177.342C346.712 162.712 343.845 135.934 342.314 123.438" stroke="black" stroke-width="2" stroke-linecap="round"/>
<path d="M283.543 146.638C281.735 151.075 283.431 160.907 295.244 160.907" stroke="black" stroke-width="2" stroke-linecap="round"/>
<path d="M288.753 149.076C288.491 150.026 288.701 152.275 291.628 153.678" stroke="black" stroke-width="2" stroke-linecap="round"/>
<path d="M341.915 158.609C345.771 157.001 348.489 151.049 347.443 141.518" stroke="black" stroke-width="2" stroke-linecap="round"/>
<path d="M320.223 169.455C324.003 170.441 323.764 167.728 326.632 165.347" stroke="black" stroke-width="2" stroke-linecap="round"/>
<ellipse cx="331.507" cy="146.493" rx="2.46509" ry="2.46509" fill="black"/>
<ellipse cx="309.814" cy="146.823" rx="2.46509" ry="2.46509" fill="black"/>
<path d="M304.446 141.188C304.965 139.66 307.203 136.835 312.005 137.751" stroke="black" stroke-width="2" stroke-linecap="round"/>
<path d="M327.453 138.228C328.599 137.236 331.714 135.847 335.013 138.228" stroke="black" stroke-width="2" stroke-linecap="round"/>
<path d="M319.502 145.132C319.119 148.377 318.859 154.959 320.88 155.321" stroke="black" stroke-width="2" stroke-linecap="round"/>
<path d="M414.21 294.208C458.089 306.369 536.906 320.338 501.146 278.924C489.861 267.804 473.208 254.766 446.421 243.263" stroke="black" stroke-width="2" stroke-linecap="round"/>
<path d="M461.705 209.242C488.985 191.767 532.929 155.667 490.464 151.066C447.999 146.464 409.226 162.405 395.147 170.951" stroke="black" stroke-width="2" stroke-linecap="round"/>
<path d="M356.034 183.704C374.112 144.756 403.364 64.0323 375.755 52.7258C341.244 38.5926 296.544 79.3487 260.06 176.637" stroke="black" stroke-width="2" stroke-linecap="round"/>
<path d="M219.856 150.154C179.429 128.023 96.898 93.9832 90.1929 134.871C83.4879 175.758 165.405 209.864 207.202 221.806" stroke="black" stroke-width="2" stroke-linecap="round"/>
<path d="M217.935 243.263C158.937 273.337 85.014 314.929 125.961 336.607C142.723 345.482 185.616 340.058 205.336 332.006" stroke="black" stroke-width="2" stroke-linecap="round"/>
<ellipse cx="314.457" cy="440.14" rx="81.3478" ry="9.86034" fill="black"/>
</svg>
