<svg width="869" height="568" viewBox="0 0 869 568" fill="none" xmlns="http://www.w3.org/2000/svg">
<path d="M188.689 65.6379H0.210449V199.661H188.689V65.6379Z" fill="white"/>
<path d="M188.676 199.674C188.676 199.674 188.676 198.832 188.676 197.229C188.676 195.625 188.676 193.286 188.676 190.158C188.676 183.954 188.676 174.859 188.614 163.201C188.614 139.924 188.528 106.448 188.466 65.6378L188.738 65.927L0.284635 66.0059L0.618773 65.6378C0.618773 113.388 0.618773 158.798 0.618773 199.7L0.309386 199.371L136.093 199.529L174.878 199.621H185.199H187.859H188.775H187.897H185.273H175.014L136.291 199.7L0.309386 199.871H0V199.542C0 158.666 0 113.256 0 65.4801V65.1252H0.358887L188.812 65.2041H189.085V65.4801C189.023 106.369 188.973 139.898 188.948 163.227C188.948 174.846 188.887 183.928 188.874 190.118C188.874 193.181 188.874 195.533 188.874 197.137C188.874 198.74 188.676 199.674 188.676 199.674Z" fill="#E0E0E0"/>
<path d="M0.210449 77.5984C0.210449 77.4012 42.3613 77.2434 94.3629 77.2434C146.365 77.2434 188.528 77.4012 188.528 77.5984C188.528 77.7957 146.377 77.9666 94.3629 77.9666C42.3489 77.9666 0.210449 77.8088 0.210449 77.5984Z" fill="#E0E0E0"/>
<g opacity="0.3">
<path d="M7.63558 71.5654C7.63558 71.9907 7.47651 72.3985 7.19337 72.6992C6.91022 73 6.5262 73.1689 6.12577 73.1689C5.72535 73.1689 5.34132 73 5.05818 72.6992C4.77504 72.3985 4.61597 71.9907 4.61597 71.5654C4.61597 71.1401 4.77504 70.7323 5.05818 70.4316C5.34132 70.1309 5.72535 69.9619 6.12577 69.9619C6.5262 69.9619 6.91022 70.1309 7.19337 70.4316C7.47651 70.7323 7.63558 71.1401 7.63558 71.5654Z" fill="#E0E0E0"/>
</g>
<g opacity="0.3">
<path d="M12.8209 71.5654C12.8209 71.8825 12.7323 72.1926 12.5664 72.4563C12.4005 72.7199 12.1647 72.9255 11.8889 73.0468C11.613 73.1682 11.3094 73.1999 11.0165 73.1381C10.7237 73.0762 10.4546 72.9235 10.2435 72.6992C10.0323 72.475 9.88854 72.1893 9.83028 71.8782C9.77202 71.5672 9.80192 71.2448 9.9162 70.9518C10.0305 70.6588 10.224 70.4084 10.4723 70.2322C10.7206 70.056 11.0125 69.9619 11.3111 69.9619C11.7115 69.9619 12.0955 70.1309 12.3787 70.4316C12.6618 70.7323 12.8209 71.1401 12.8209 71.5654Z" fill="#E0E0E0"/>
</g>
<g opacity="0.3">
<path d="M17.9198 71.5654C17.9198 71.8825 17.8312 72.1926 17.6653 72.4563C17.4994 72.7199 17.2636 72.9255 16.9877 73.0468C16.7119 73.1682 16.4083 73.1999 16.1154 73.1381C15.8225 73.0762 15.5535 72.9235 15.3424 72.6992C15.1312 72.475 14.9874 72.1893 14.9292 71.8782C14.8709 71.5672 14.9008 71.2448 15.0151 70.9518C15.1293 70.6588 15.3229 70.4084 15.5711 70.2322C15.8194 70.056 16.1113 69.9619 16.41 69.9619C16.8104 69.9619 17.1944 70.1309 17.4775 70.4316C17.7607 70.7323 17.9198 71.1401 17.9198 71.5654Z" fill="#E0E0E0"/>
</g>
<path d="M66.679 91.5828H16.4099V144.984H66.679V91.5828Z" fill="#E0E0E0"/>
<path d="M162.836 106.671C162.836 106.869 143.221 107.026 119.04 107.026C94.858 107.026 75.2429 106.869 75.2429 106.671C75.2429 106.474 94.858 106.316 119.04 106.316C143.221 106.316 162.836 106.474 162.836 106.671Z" fill="#E0E0E0"/>
<path d="M162.836 116.595C162.836 116.792 143.221 116.95 119.04 116.95C94.858 116.95 75.2429 116.792 75.2429 116.595C75.2429 116.398 94.858 116.24 119.04 116.24C143.221 116.24 162.836 116.398 162.836 116.595Z" fill="#E0E0E0"/>
<path d="M162.836 126.518C162.836 126.715 143.221 126.873 119.04 126.873C94.858 126.873 75.2429 126.715 75.2429 126.518C75.2429 126.321 94.858 126.163 119.04 126.163C143.221 126.163 162.836 126.321 162.836 126.518Z" fill="#E0E0E0"/>
<path d="M127.009 136.441C126.338 136.55 125.659 136.598 124.98 136.586L119.436 136.691C114.745 136.691 108.298 136.796 101.132 136.796C93.967 136.796 87.5194 136.796 82.8291 136.691L77.2849 136.586C76.6016 136.598 75.9186 136.549 75.2429 136.441C75.9186 136.333 76.6016 136.285 77.2849 136.297L82.8291 136.191C87.507 136.126 93.967 136.086 101.132 136.086C108.298 136.086 114.745 136.086 119.436 136.191L124.98 136.297C125.659 136.284 126.338 136.332 127.009 136.441Z" fill="#E0E0E0"/>
<path d="M43.178 162.978H19.5532V188.068H43.178V162.978Z" fill="#E0E0E0"/>
<path d="M86.0217 162.978H62.397V188.068H86.0217V162.978Z" fill="#E0E0E0"/>
<path d="M128.878 162.978H105.253V188.068H128.878V162.978Z" fill="#E0E0E0"/>
<path d="M171.722 162.978H148.097V188.068H171.722V162.978Z" fill="#E0E0E0"/>
<path d="M378.85 0.512451H216.496V70.5533H378.85V0.512451Z" fill="white"/>
<path d="M378.85 70.5535C378.85 70.5535 378.85 70.1197 378.85 69.2391C378.85 68.3585 378.85 67.1888 378.85 65.5984C378.85 62.4046 378.85 57.7124 378.85 51.6665C378.85 39.5746 378.788 22.094 378.751 0.407443L378.936 0.604595L216.583 0.683454L216.83 0.407443C216.83 24.9329 216.83 48.6172 216.83 70.4483L216.595 70.1854L332.999 70.3037L366.759 70.3826H375.805H366.821L333.11 70.4483L216.546 70.5797H216.298V70.3169C216.298 48.4858 216.298 24.8015 216.298 0.276011V0H216.558L378.912 0.092003H379.085V0.460017C379.085 22.1597 379.011 39.6797 378.986 51.7979C378.986 57.8176 378.986 62.5097 378.986 65.6904C378.986 67.2676 378.986 68.4637 378.986 69.2917C378.986 70.1197 378.85 70.5535 378.85 70.5535Z" fill="#E0E0E0"/>
<path d="M216.657 9.96265C216.657 9.80486 252.942 9.68652 297.692 9.68652C342.441 9.68652 378.751 9.80486 378.751 9.96265C378.751 10.1204 342.466 10.2388 297.692 10.2388C252.917 10.2388 216.657 10.1073 216.657 9.96265Z" fill="#E0E0E0"/>
<g opacity="0.3">
<path d="M223.451 5.71737C223.451 5.96145 223.383 6.20008 223.257 6.40375C223.13 6.60742 222.95 6.7672 222.739 6.86333C222.527 6.95946 222.294 6.98773 222.068 6.94464C221.842 6.90155 221.632 6.78899 221.466 6.62088C221.299 6.45277 221.183 6.23649 221.13 5.99876C221.078 5.76104 221.093 5.51231 221.173 5.28333C221.252 5.05434 221.393 4.85515 221.578 4.71038C221.763 4.5656 221.984 4.4816 222.214 4.46875C222.531 4.46833 222.837 4.59775 223.068 4.83019C223.298 5.06264 223.435 5.3803 223.451 5.71737Z" fill="#EBEBEB"/>
</g>
<g opacity="0.3">
<path d="M227.486 5.71737C227.486 5.96432 227.417 6.20573 227.287 6.41106C227.158 6.61639 226.975 6.77644 226.76 6.87094C226.545 6.96545 226.309 6.99017 226.081 6.942C225.853 6.89382 225.643 6.7749 225.479 6.60028C225.314 6.42565 225.202 6.20317 225.157 5.96096C225.112 5.71876 225.135 5.4677 225.224 5.23954C225.313 5.01139 225.463 4.81638 225.657 4.67918C225.85 4.54198 226.077 4.46875 226.31 4.46875C226.617 4.48468 226.907 4.62135 227.125 4.85214C227.342 5.08294 227.471 5.39136 227.486 5.71737Z" fill="#EBEBEB"/>
</g>
<g opacity="0.3">
<path d="M230.295 6.97917C230.944 6.97917 231.47 6.42014 231.47 5.73055C231.47 5.04095 230.944 4.48193 230.295 4.48193C229.646 4.48193 229.119 5.04095 229.119 5.73055C229.119 6.42014 229.646 6.97917 230.295 6.97917Z" fill="#EBEBEB"/>
</g>
<path d="M269.513 21.3447H230.295V62.996H269.513V21.3447Z" fill="#E0E0E0"/>
<path d="M367.638 32.5037C367.638 32.6615 347.453 32.7798 322.566 32.7798C297.679 32.7798 277.495 32.6615 277.495 32.5037C277.495 32.3459 297.679 32.2275 322.566 32.2275C347.453 32.2275 367.638 32.359 367.638 32.5037Z" fill="#E0E0E0"/>
<path d="M367.638 40.9941C367.638 41.1388 347.453 41.2571 322.566 41.2571C297.679 41.2571 277.495 41.1388 277.495 40.9941C277.495 40.8495 297.679 40.718 322.566 40.718C347.453 40.718 367.638 40.8364 367.638 40.9941Z" fill="#E0E0E0"/>
<path d="M335.461 49.4715C335.265 49.503 335.064 49.503 334.867 49.4715H333.184L326.997 49.5636L306.49 49.6424L285.96 49.6687L279.772 49.5767H278.076C277.879 49.6069 277.679 49.6069 277.482 49.5767C277.68 49.5549 277.879 49.5549 278.076 49.5767H279.772L285.96 49.4978L306.478 49.4058L326.984 49.4978L333.172 49.5767H334.855C335.053 49.5174 335.256 49.4822 335.461 49.4715Z" fill="#E0E0E0"/>
<path d="M816.867 93.988C817.128 93.5778 817.436 93.2027 817.782 92.8709C818.513 92.1085 819.404 91.1491 820.456 90.0319C822.72 87.6398 825.888 84.3803 829.415 80.8316L829.502 80.7527V81.2259C825.95 77.7297 822.757 74.5359 820.48 72.1964L817.795 69.41C817.448 69.0844 817.137 68.7185 816.867 68.3191C817.263 68.5688 817.628 68.8689 817.956 69.2128L820.777 71.8415C823.129 74.089 826.371 77.2303 829.923 80.7264L830.17 80.9761L829.923 81.2127L829.849 81.2916C826.322 84.8666 823.104 88.0735 820.753 90.3605L817.956 93.068C817.62 93.4098 817.256 93.7178 816.867 93.988Z" fill="#E0E0E0"/>
<path d="M789.48 68.3059C789.211 68.7067 788.905 69.0767 788.564 69.4099L785.928 72.262C783.663 74.641 780.495 77.9005 776.968 81.4624L776.882 81.5413V81.0549C780.433 84.5642 783.626 87.758 785.903 90.0976L788.589 92.884C788.939 93.2055 789.251 93.5719 789.517 93.9749C789.123 93.7168 788.758 93.4126 788.428 93.068L785.606 90.4393C783.255 88.1918 780.013 85.0505 776.461 81.5413L776.213 81.3047L776.461 81.0681L776.535 80.9761C780.062 77.4142 783.28 74.2073 785.631 71.9072L788.403 69.2259C788.726 68.8745 789.088 68.5656 789.48 68.3059Z" fill="#E0E0E0"/>
<path d="M796.522 100.034C796.361 99.9683 799.232 91.3857 802.944 80.8579C806.657 70.33 809.788 61.8394 809.949 61.9052C810.11 61.9709 807.226 70.5535 803.526 81.0813C799.826 91.6091 796.682 100.1 796.522 100.034Z" fill="#E0E0E0"/>
<path d="M848.041 118.408C848.041 118.408 848.041 117.909 848.041 116.976C848.041 116.043 848.041 114.636 848.041 112.849C848.041 109.221 848.041 103.924 848.041 97.195C848.041 83.7231 847.966 64.4681 847.905 41.2569L848.164 41.5329H759.061L759.371 41.2044C759.371 69.0945 759.371 95.4338 759.371 118.356L759.098 118.067L823.451 118.211L841.692 118.29H846.543H848.226H847.818H846.58H841.791L823.599 118.369L759.036 118.513H758.764V118.211C758.764 95.2892 758.764 68.95 758.764 41.0598V40.7312H759.086H848.189H848.449V41.2044C848.449 64.4812 848.35 83.8019 848.313 97.3133C848.313 104.03 848.313 109.287 848.313 112.901C848.313 114.676 848.313 116.043 848.313 116.989C848.313 117.935 848.041 118.408 848.041 118.408Z" fill="#E0E0E0"/>
<path d="M848.746 52.7049C848.746 52.889 828.611 53.0337 803.786 53.0337C778.961 53.0337 758.838 52.889 758.838 52.7049C758.838 52.5209 778.961 52.3762 803.786 52.3762C828.611 52.3762 848.746 52.5209 848.746 52.7049Z" fill="#E0E0E0"/>
<path d="M766.127 47.0663C766.127 47.3262 766.055 47.5804 765.919 47.7965C765.783 48.0126 765.59 48.1811 765.363 48.2806C765.137 48.3801 764.889 48.4061 764.648 48.3554C764.408 48.3047 764.188 48.1795 764.015 47.9957C763.842 47.8119 763.724 47.5777 763.676 47.3227C763.628 47.0677 763.653 46.8035 763.747 46.5633C763.84 46.3232 763.999 46.1179 764.202 45.9735C764.406 45.829 764.645 45.752 764.89 45.752C765.218 45.752 765.533 45.8904 765.765 46.1369C765.997 46.3834 766.127 46.7177 766.127 47.0663Z" fill="#E0E0E0"/>
<path d="M770.533 47.0663C770.533 47.3262 770.46 47.5804 770.324 47.7965C770.188 48.0126 769.995 48.1811 769.769 48.2806C769.543 48.3801 769.294 48.4061 769.054 48.3554C768.814 48.3047 768.593 48.1795 768.42 47.9957C768.247 47.8119 768.129 47.5777 768.082 47.3227C768.034 47.0677 768.058 46.8035 768.152 46.5633C768.246 46.3232 768.404 46.1179 768.608 45.9735C768.811 45.829 769.051 45.752 769.295 45.752C769.624 45.752 769.938 45.8904 770.17 46.1369C770.403 46.3834 770.533 46.7177 770.533 47.0663Z" fill="#E0E0E0"/>
<path d="M774.902 47.0663C774.902 47.3262 774.829 47.5804 774.693 47.7965C774.557 48.0126 774.364 48.1811 774.138 48.2806C773.911 48.3801 773.663 48.4061 773.423 48.3554C773.183 48.3047 772.962 48.1795 772.789 47.9957C772.616 47.8119 772.498 47.5777 772.45 47.3227C772.403 47.0677 772.427 46.8035 772.521 46.5633C772.614 46.3232 772.773 46.1179 772.977 45.9735C773.18 45.829 773.419 45.752 773.664 45.752C773.992 45.752 774.307 45.8904 774.539 46.1369C774.771 46.3834 774.902 46.7177 774.902 47.0663Z" fill="#E0E0E0"/>
<path d="M827.497 457.717C832.645 454.891 838.722 454.523 844.439 455.535C847.508 456.074 850.714 457.047 852.805 459.478C854.896 461.91 855.28 466.234 852.892 468.35C851.341 469.454 849.478 469.955 847.62 469.769C843.14 469.769 838.165 468.876 834.588 471.741C832.546 473.371 831.197 476.078 828.747 476.88C827.526 477.181 826.246 477.052 825.1 476.511C823.955 475.97 823.006 475.048 822.398 473.883C821.239 471.499 820.983 468.734 821.681 466.155C821.976 464.369 822.655 462.679 823.663 461.216C824.672 459.753 825.984 458.556 827.497 457.717Z" fill="#EBEBEB"/>
<path d="M815.691 433.52C818.847 438.291 824.973 436.714 827.807 433.796C830.641 430.878 831.841 426.646 832.942 422.624C835.417 413.424 837.893 403.75 836.098 394.366C835.647 391.521 834.47 388.861 832.695 386.677C831.801 385.595 830.654 384.782 829.37 384.32C828.086 383.859 826.71 383.765 825.381 384.048C822.287 384.916 820.431 388.123 818.983 391.172C814.898 400.197 812.759 410.075 812.721 420.087C812.721 424.74 813.216 429.616 815.691 433.467" fill="#EBEBEB"/>
<path d="M807.041 440.368C810.456 436.057 811.112 429.774 809.59 424.372C807.863 419.005 804.775 414.248 800.667 410.624C796.004 406.217 790.577 402.815 784.691 400.609C782.41 399.628 779.958 399.18 777.5 399.295C776.267 399.379 775.072 399.782 774.02 400.469C772.967 401.157 772.089 402.107 771.461 403.238C769.791 406.642 771.461 410.782 773.144 414.147C776.218 420.09 779.727 425.768 783.639 431.128C786.782 435.426 790.383 439.684 795.185 441.642C799.987 443.601 804.962 443.364 807.499 439.829" fill="#EBEBEB"/>
<path d="M815.481 505.611C815.645 504.896 815.74 504.165 815.765 503.43C815.914 501.852 816.087 499.868 816.31 497.502C816.532 495.136 816.916 492.047 817.547 488.814C818.284 485.314 819.281 481.881 820.53 478.549C821.759 475.224 823.426 472.099 825.48 469.27C827.137 466.974 829.25 465.094 831.668 463.763C833.324 462.894 835.099 462.309 836.927 462.028C837.613 462.001 838.293 461.895 838.957 461.713C838.27 461.641 837.577 461.641 836.89 461.713C834.992 461.862 833.135 462.374 831.408 463.224C828.845 464.511 826.596 466.409 824.836 468.771C822.698 471.644 820.971 474.837 819.713 478.247C818.45 481.624 817.465 485.112 816.768 488.67C816.238 491.579 815.875 494.52 815.679 497.476C815.505 499.999 815.431 502.036 815.394 503.443C815.348 504.167 815.377 504.894 815.481 505.611Z" fill="#E0E0E0"/>
<path d="M815.864 501.051C815.901 500.714 815.901 500.375 815.864 500.039V497.16C815.864 494.65 815.864 491.035 815.988 486.567C816.186 477.629 816.916 468.008 818.315 454.457C819.639 441.708 821.421 426.856 823.265 417.209C823.661 415.014 824.069 413.043 824.502 411.321C824.936 409.599 825.171 408.088 825.468 406.879C825.765 405.669 825.938 404.815 826.111 404.079C826.202 403.754 826.256 403.419 826.272 403.08C826.135 403.385 826.024 403.701 825.938 404.026C825.74 404.745 825.48 405.665 825.158 406.787C824.812 407.996 824.453 409.415 824.044 411.203C823.636 412.99 823.166 414.896 822.72 417.078C820.396 428.488 818.649 440.023 817.485 451.632C816.087 465.222 815.456 477.603 815.394 486.553C815.394 491.035 815.394 494.663 815.543 497.16C815.617 498.33 815.666 499.289 815.716 500.039C815.733 500.38 815.783 500.719 815.864 501.051Z" fill="#E0E0E0"/>
<path d="M815.926 477.182C815.988 476.18 815.988 475.174 815.926 474.172C815.827 472.24 815.567 469.441 815.06 466.023C814.442 462.035 813.616 458.086 812.585 454.194C811.367 449.386 809.803 444.685 807.907 440.131C804.656 431.738 800.002 424.039 794.17 417.406C793.159 416.274 792.08 415.211 790.94 414.225C790.445 413.779 789.999 413.332 789.554 412.977L788.316 412.057C787.562 411.451 786.764 410.91 785.928 410.44C788.676 412.738 791.288 415.214 793.749 417.853C799.395 424.532 803.923 432.186 807.14 440.486C809.003 445.013 810.578 449.667 811.855 454.418C812.888 458.273 813.734 462.182 814.392 466.129C814.986 469.52 815.32 472.28 815.53 474.199C815.583 475.203 815.715 476.201 815.926 477.182Z" fill="#E0E0E0"/>
<path d="M794.207 519.28L796.46 552.033H836.086L838.338 519.28H794.207Z" fill="#E0E0E0"/>
<path d="M843.053 506.36H790.371V519.267H843.053V506.36Z" fill="#E0E0E0"/>
<path d="M790.371 550.785V554.36H792.846H842.187V550.785H790.371Z" fill="#EBEBEB"/>
<path d="M795.271 560.669L792.846 554.36H840.306L837.472 560.669H795.271Z" fill="#E0E0E0"/>
<path d="M837.596 529.979C837.596 529.979 837.596 530.097 837.41 530.281L836.816 531.122L834.514 534.251L834.415 534.395L834.304 534.251C832.856 532.121 830.925 529.269 828.636 525.918H828.97L823.376 534.316L823.203 534.579L823.005 534.329L816.384 525.97H816.768L816.409 526.457L810.481 534.343L810.283 534.605L810.11 534.329C808.092 531.306 806.211 528.494 804.516 525.931H804.838L797.969 534.251L797.846 534.395L797.747 534.237L795.593 530.386L795.036 529.361C794.971 529.249 794.917 529.13 794.875 529.006C794.875 529.006 794.962 529.098 795.098 529.322L795.717 530.308L797.982 534.08H797.759L804.528 525.655L804.702 525.444L804.85 525.668L810.493 534.027H810.11L816.025 526.141L816.384 525.655L816.57 525.405L816.768 525.655L823.364 534.04H823.054L828.698 525.681L828.871 525.444L829.032 525.681L834.576 534.106H834.378L836.779 531.044L837.422 530.255C837.471 530.157 837.529 530.064 837.596 529.979Z" fill="#F5F5F5"/>
<path d="M838.883 519.057C838.883 519.202 828.982 519.32 816.706 519.32C804.429 519.32 794.529 519.202 794.529 519.057C794.529 518.912 804.429 518.794 816.706 518.794C828.982 518.794 838.883 518.912 838.883 519.057Z" fill="#F5F5F5"/>
<path d="M840.887 554.715C840.887 554.86 830.096 554.978 816.792 554.978C803.489 554.978 792.685 554.86 792.685 554.715C792.685 554.57 803.476 554.452 816.792 554.452C830.108 554.452 840.887 554.57 840.887 554.715Z" fill="#F5F5F5"/>
<path d="M105.451 97.8391H737.664C739.876 97.8391 741.997 98.7724 743.562 100.434C745.126 102.095 746.005 104.348 746.005 106.698V535.394C746.005 540.473 744.105 545.344 740.724 548.935C737.342 552.526 732.756 554.544 727.974 554.544H113.941C111.569 554.551 109.219 554.061 107.025 553.101C104.832 552.142 102.838 550.733 101.159 548.954C99.4792 547.175 98.1466 545.061 97.2374 542.735C96.3281 540.408 95.8601 537.913 95.8601 535.394V108.038C95.8585 106.7 96.1054 105.374 96.5866 104.136C97.0679 102.899 97.7741 101.774 98.6649 100.827C99.5556 99.8799 100.613 99.1285 101.778 98.6157C102.942 98.103 104.191 97.8391 105.451 97.8391Z" fill="#455A64"/>
<path d="M68.6714 520.713H773.095V542.623C773.095 547.405 771.306 551.992 768.122 555.374C764.938 558.756 760.619 560.656 756.116 560.656H85.6505C81.1474 560.656 76.8287 558.756 73.6445 555.374C70.4603 551.992 68.6714 547.405 68.6714 542.623V520.713Z" fill="#455A64"/>
<path d="M726.761 115.99H113.31V501.616H726.761V115.99Z" fill="#E0E0E0"/>
<path d="M356.859 520.713L365.596 535.473H488.595L496.714 520.713H356.859Z" fill="#263238"/>
<path d="M710.042 138.334H131.514V501.616H710.042V138.334Z" fill="#263238"/>
<path d="M175.905 490.943C175.608 490.943 175.36 413.582 175.36 318.161C175.36 222.74 175.608 145.339 175.905 145.339C176.202 145.339 176.449 222.701 176.449 318.161C176.449 413.621 176.202 490.943 175.905 490.943Z" fill="#E0E0E0"/>
<path d="M164.235 176.673C164.235 176.988 160.027 177.251 154.842 177.251C149.656 177.251 145.436 176.988 145.436 176.673C145.436 176.357 149.644 176.094 154.842 176.094C160.039 176.094 164.235 176.357 164.235 176.673Z" fill="#E0E0E0"/>
<path d="M164.952 157.063C164.952 157.378 160.745 157.641 155.559 157.641C150.374 157.641 146.167 157.378 146.167 157.063C146.167 156.747 150.374 156.485 155.559 156.485C160.745 156.485 164.952 156.747 164.952 157.063Z" fill="#E0E0E0"/>
<path d="M164.235 197.807C164.235 198.122 160.027 198.385 154.842 198.385C149.656 198.385 145.436 198.122 145.436 197.807C145.436 197.492 149.644 197.229 154.842 197.229C160.039 197.229 164.235 197.492 164.235 197.807Z" fill="#E0E0E0"/>
<path d="M164.235 218.942C164.235 219.27 160.027 219.52 154.842 219.52C149.656 219.52 145.436 219.27 145.436 218.942C145.436 218.613 149.644 218.377 154.842 218.377C160.039 218.377 164.235 218.639 164.235 218.942Z" fill="#E0E0E0"/>
<path d="M164.235 240.089C164.235 240.405 160.027 240.667 154.842 240.667C149.656 240.667 145.436 240.405 145.436 240.089C145.436 239.774 149.644 239.511 154.842 239.511C160.039 239.511 164.235 239.761 164.235 240.089Z" fill="#E0E0E0"/>
<path d="M164.235 261.224C164.235 261.539 160.027 261.802 154.842 261.802C149.656 261.802 145.436 261.539 145.436 261.224C145.436 260.908 149.644 260.646 154.842 260.646C160.039 260.646 164.235 260.908 164.235 261.224Z" fill="#E0E0E0"/>
<path d="M164.235 282.358C164.235 282.674 160.027 282.936 154.842 282.936C149.656 282.936 145.436 282.674 145.436 282.358C145.436 282.043 149.644 281.78 154.842 281.78C160.039 281.78 164.235 282.043 164.235 282.358Z" fill="#E0E0E0"/>
<path d="M164.235 303.493C164.235 303.821 160.027 304.071 154.842 304.071C149.656 304.071 145.436 303.821 145.436 303.493C145.436 303.164 149.644 302.928 154.842 302.928C160.039 302.928 164.235 303.177 164.235 303.493Z" fill="#E0E0E0"/>
<path d="M164.235 324.64C164.235 324.956 160.027 325.205 154.842 325.205C149.656 325.205 145.436 324.956 145.436 324.64C145.436 324.325 149.644 324.062 154.842 324.062C160.039 324.062 164.235 324.312 164.235 324.64Z" fill="#E0E0E0"/>
<path d="M164.235 345.775C164.235 346.09 160.027 346.353 154.842 346.353C149.656 346.353 145.436 346.09 145.436 345.775C145.436 345.46 149.644 345.197 154.842 345.197C160.039 345.197 164.235 345.46 164.235 345.775Z" fill="#E0E0E0"/>
<path d="M164.235 366.909C164.235 367.225 160.027 367.487 154.842 367.487C149.656 367.487 145.436 367.225 145.436 366.909C145.436 366.594 149.644 366.331 154.842 366.331C160.039 366.331 164.235 366.594 164.235 366.909Z" fill="#E0E0E0"/>
<path d="M164.235 388.044C164.235 388.372 160.027 388.622 154.842 388.622C149.656 388.622 145.436 388.372 145.436 388.044C145.436 387.716 149.644 387.479 154.842 387.479C160.039 387.479 164.235 387.729 164.235 388.044Z" fill="#E0E0E0"/>
<path d="M164.235 409.218C164.235 409.533 160.027 409.783 154.842 409.783C149.656 409.783 145.436 409.533 145.436 409.218C145.436 408.902 149.644 408.64 154.842 408.64C160.039 408.64 164.235 408.863 164.235 409.218Z" fill="#E0E0E0"/>
<path d="M164.235 430.326C164.235 430.641 160.027 430.904 154.842 430.904C149.656 430.904 145.436 430.641 145.436 430.326C145.436 430.011 149.644 429.748 154.842 429.748C160.039 429.748 164.235 430.011 164.235 430.326Z" fill="#E0E0E0"/>
<path d="M164.235 451.46C164.235 451.776 160.027 452.038 154.842 452.038C149.656 452.038 145.436 451.776 145.436 451.46C145.436 451.145 149.644 450.882 154.842 450.882C160.039 450.882 164.235 451.145 164.235 451.46Z" fill="#E0E0E0"/>
<path d="M164.235 472.595C164.235 472.923 160.027 473.173 154.842 473.173C149.656 473.173 145.436 472.923 145.436 472.595C145.436 472.266 149.644 472.017 154.842 472.017C160.039 472.017 164.235 472.306 164.235 472.595Z" fill="#E0E0E0"/>
<path d="M239.564 175.424C239.564 175.739 228.649 176.002 215.184 176.002C201.72 176.002 190.792 175.739 190.792 175.424C190.792 175.109 201.708 174.846 215.184 174.846C228.661 174.846 239.564 175.109 239.564 175.424Z" fill="#749F82"/>
<path d="M239.564 472.595C239.564 472.923 228.649 473.173 215.184 473.173C201.72 473.173 190.792 472.923 190.792 472.595C190.792 472.266 201.708 472.017 215.184 472.017C228.661 472.017 239.564 472.306 239.564 472.595Z" fill="#749F82"/>
<path d="M307.493 218.942C307.493 219.27 287.061 219.52 261.865 219.52C236.668 219.52 216.236 219.27 216.236 218.942C216.236 218.613 236.656 218.377 261.865 218.377C287.073 218.377 307.493 218.639 307.493 218.942Z" fill="#749F82"/>
<path d="M413.031 218.942C413.031 219.27 392.599 219.52 367.402 219.52C342.206 219.52 321.762 219.27 321.762 218.942C321.762 218.613 342.194 218.377 367.402 218.377C392.611 218.377 413.031 218.639 413.031 218.942Z" fill="#E0E0E0"/>
<path d="M372.699 240.089C372.699 240.405 342.59 240.667 305.451 240.667C268.312 240.667 238.203 240.405 238.203 240.089C238.203 239.774 268.3 239.511 305.451 239.511C342.602 239.511 372.699 239.761 372.699 240.089Z" fill="#E0E0E0"/>
<path d="M372.699 261.224C372.699 261.539 342.59 261.802 305.451 261.802C268.312 261.802 238.203 261.539 238.203 261.224C238.203 260.908 268.3 260.646 305.451 260.646C342.602 260.646 372.699 260.908 372.699 261.224Z" fill="#E0E0E0"/>
<path d="M465.28 324.64C465.28 324.956 435.158 325.205 398.032 325.205C360.905 325.205 330.771 324.956 330.771 324.64C330.771 324.325 360.88 324.062 398.032 324.062C435.183 324.062 465.28 324.312 465.28 324.64Z" fill="#E0E0E0"/>
<path d="M425.32 282.358C425.32 282.674 395.21 282.936 358.084 282.936C320.957 282.936 290.823 282.674 290.823 282.358C290.823 282.043 320.933 281.78 358.084 281.78C395.235 281.78 425.32 282.043 425.32 282.358Z" fill="#E0E0E0"/>
<path d="M589.678 282.358C589.678 282.674 559.569 282.936 522.442 282.936C485.316 282.936 455.182 282.674 455.182 282.358C455.182 282.043 485.291 281.78 522.442 281.78C559.593 281.78 589.678 282.043 589.678 282.358Z" fill="#E0E0E0"/>
<path d="M532.528 240.089C532.528 240.405 502.406 240.667 465.28 240.667C428.154 240.667 398.032 240.405 398.032 240.089C398.032 239.774 428.129 239.511 465.28 239.511C502.431 239.511 532.528 239.761 532.528 240.089Z" fill="#FAFAFA"/>
<path d="M625.431 324.64C625.431 324.956 595.321 325.205 558.183 325.205C521.044 325.205 490.934 324.956 490.934 324.64C490.934 324.325 521.031 324.062 558.183 324.062C595.334 324.062 625.431 324.312 625.431 324.64Z" fill="#FAFAFA"/>
<path d="M606.88 261.224C606.88 261.539 560.125 261.802 502.456 261.802C444.786 261.802 398.032 261.539 398.032 261.224C398.032 260.908 444.774 260.646 502.456 260.646C560.138 260.646 606.88 260.908 606.88 261.224Z" fill="#455A64"/>
<path d="M239.564 197.807C239.564 198.122 228.649 198.385 215.184 198.385C201.72 198.385 190.792 198.122 190.792 197.807C190.792 197.492 201.708 197.229 215.184 197.229C228.661 197.229 239.564 197.492 239.564 197.807Z" fill="#FAFAFA"/>
<path d="M239.564 451.46C239.564 451.776 228.649 452.038 215.184 452.038C201.72 452.038 190.792 451.776 190.792 451.46C190.792 451.145 201.708 450.882 215.184 450.882C228.661 450.882 239.564 451.145 239.564 451.46Z" fill="#FAFAFA"/>
<path d="M263.684 282.358C263.684 282.674 252.769 282.936 239.292 282.936C225.815 282.936 214.9 282.674 214.9 282.358C214.9 282.043 225.827 281.78 239.292 281.78C252.756 281.78 263.684 282.043 263.684 282.358Z" fill="#FAFAFA"/>
<path d="M654.662 282.358C654.662 282.674 643.746 282.936 630.282 282.936C616.817 282.936 605.89 282.674 605.89 282.358C605.89 282.043 616.805 281.78 630.282 281.78C643.759 281.78 654.662 282.043 654.662 282.358Z" fill="#749F82"/>
<path d="M307.493 366.791C307.493 367.106 287.061 367.369 261.865 367.369C236.668 367.369 216.236 367.106 216.236 366.791C216.236 366.476 236.656 366.213 261.865 366.213C287.073 366.213 307.493 366.462 307.493 366.791Z" fill="#749F82"/>
<path d="M413.031 366.791C413.031 367.106 392.599 367.369 367.402 367.369C342.206 367.369 321.762 367.106 321.762 366.791C321.762 366.476 342.194 366.213 367.402 366.213C392.611 366.213 413.031 366.462 413.031 366.791Z" fill="#E0E0E0"/>
<path d="M372.699 387.925C372.699 388.241 342.59 388.503 305.451 388.503C268.312 388.503 238.203 388.241 238.203 387.925C238.203 387.61 268.3 387.347 305.451 387.347C342.602 387.347 372.699 387.61 372.699 387.925Z" fill="#E0E0E0"/>
<path d="M372.699 409.06C372.699 409.375 342.59 409.638 305.451 409.638C268.312 409.638 238.203 409.375 238.203 409.06C238.203 408.745 268.3 408.482 305.451 408.482C342.602 408.482 372.699 408.745 372.699 409.06Z" fill="#E0E0E0"/>
<path d="M425.32 430.247C425.32 430.575 395.21 430.825 358.084 430.825C320.957 430.825 290.823 430.575 290.823 430.247C290.823 429.919 320.933 429.682 358.084 429.682C395.235 429.682 425.32 429.879 425.32 430.247Z" fill="#E0E0E0"/>
<path d="M589.678 430.247C589.678 430.575 559.569 430.825 522.442 430.825C485.316 430.825 455.182 430.575 455.182 430.247C455.182 429.919 485.291 429.682 522.442 429.682C559.593 429.682 589.678 429.879 589.678 430.247Z" fill="#E0E0E0"/>
<path d="M532.528 387.925C532.528 388.241 502.406 388.503 465.28 388.503C428.154 388.503 398.032 388.241 398.032 387.925C398.032 387.61 428.129 387.347 465.28 387.347C502.431 387.347 532.528 387.61 532.528 387.925Z" fill="#FAFAFA"/>
<path d="M606.88 409.06C606.88 409.375 560.125 409.638 502.456 409.638C444.786 409.638 398.032 409.375 398.032 409.06C398.032 408.745 444.774 408.482 502.456 408.482C560.138 408.482 606.88 408.745 606.88 409.06Z" fill="#455A64"/>
<path d="M263.684 430.247C263.684 430.575 252.769 430.825 239.292 430.825C225.815 430.825 214.9 430.575 214.9 430.247C214.9 429.919 225.827 429.682 239.292 429.682C252.756 429.682 263.684 429.879 263.684 430.247Z" fill="#FAFAFA"/>
<path d="M654.662 430.247C654.662 430.575 643.746 430.825 630.282 430.825C616.817 430.825 605.89 430.575 605.89 430.247C605.89 429.919 616.805 429.682 630.282 429.682C643.759 429.682 654.662 429.879 654.662 430.247Z" fill="#749F82"/>
<path d="M667.668 534.08C667.668 534.264 543.122 534.422 389.518 534.422C235.913 534.422 111.342 534.238 111.342 534.08C111.342 533.922 235.864 533.738 389.518 533.738C543.171 533.738 667.668 533.87 667.668 534.08Z" fill="#263238"/>
<path d="M90.514 418.195C81.8522 408.993 71.0851 402.342 59.2708 398.897C47.4564 395.452 35.0014 395.331 23.1296 398.546C43.2438 413.101 66.9795 420.975 91.3184 421.165" fill="#749F82"/>
<path d="M67.6567 332.237C70.4659 311.142 62.7065 287.419 47.8559 272.094C47.3733 292.991 55.6772 316.505 67.6567 332.237Z" fill="#749F82"/>
<path d="M79.5495 372.075C68.8107 350.411 51.7143 333.057 30.8521 322.643C34.1131 334.785 40.3606 345.785 48.9521 354.512C57.5435 363.239 68.1688 369.379 79.7351 372.298" fill="#749F82"/>
<path d="M82.0122 379.751C70.0204 380.119 57.8801 379.672 46.2843 376.412C34.6885 373.153 23.6001 366.883 15.853 357.131C39.3465 357.208 62.2962 364.647 81.8266 378.515" fill="#749F82"/>
<path d="M75.9233 354.437C82.0121 330.2 92.0114 313.443 109.993 299.865C111.367 311.781 108.69 323.826 102.444 333.831C96.1977 343.836 86.7928 351.143 75.9233 354.437Z" fill="#749F82"/>
<path d="M121.193 396.232C121.238 389.163 119.314 382.236 115.664 376.325C112.013 370.413 106.798 365.779 100.674 363.006C101.677 375.519 110.934 389.989 121.193 396.232Z" fill="#749F82"/>
<path d="M126.923 375.794C127.759 365.649 131.306 355.968 137.146 347.891C142.987 339.814 150.878 333.676 159.891 330.2C155.745 350.454 144.731 367.317 126.923 375.794Z" fill="#749F82"/>
<path d="M118.285 412.057C122.517 405.63 129.423 401.634 136.563 399.65C143.704 397.665 151.166 397.481 158.542 397.323C153.517 403.115 147.371 407.683 140.527 410.714C133.683 413.745 126.302 415.167 118.891 414.883" fill="#749F82"/>
<path d="M109.721 463.697C123.18 459.287 137.707 460.394 150.436 466.8C163.165 473.207 173.17 484.447 178.479 498.304C153.542 493.335 128.853 481.506 109.721 463.697Z" fill="#749F82"/>
<path d="M82.309 445.756C86.4548 458.781 85.6504 474.527 76.4307 485.752C74.5932 479.035 74.1673 471.971 75.1831 465.06C76.1989 458.149 78.6315 451.559 82.309 445.756Z" fill="#749F82"/>
<path d="M66.0973 438.515C65.4287 446.911 62.7324 454.983 58.2688 461.95C53.8052 468.917 47.7253 474.544 40.6163 478.286C40.2856 478.511 39.9154 478.661 39.5282 478.729C39.1411 478.797 38.7449 478.78 38.3639 478.681C37.2378 478.194 37.1264 476.565 37.2749 475.276C39.0817 458.598 50.727 442.418 66.0973 438.475" fill="#749F82"/>
<path d="M55.5163 436.819C51.9955 440.859 47.731 444.088 42.9869 446.305C38.2429 448.523 33.1205 449.681 27.9374 449.71C22.7544 449.738 17.621 448.635 12.8558 446.47C8.09047 444.305 3.79481 441.123 0.235107 437.121C17.8083 435.084 38.0793 433.717 55.5163 436.819Z" fill="#749F82"/>
<path d="M52.8804 287.629C52.8804 287.629 52.8804 287.826 53.0412 288.181L53.5858 289.758C54.0808 291.178 54.8233 293.202 55.702 295.804C56.5806 298.406 57.7439 301.64 59.0062 305.386L61.0358 311.379L63.2015 318.121C66.3201 327.572 69.7729 338.914 73.5103 351.545C77.2476 364.176 81.0222 378.16 84.809 392.907C88.5959 407.654 91.8507 421.822 94.7094 434.677C97.5681 447.531 99.8081 459.242 101.504 469.099C101.941 471.561 102.353 473.901 102.741 476.118C103.129 478.334 103.463 480.424 103.743 482.387C104.375 486.33 104.919 489.681 105.29 492.455C105.662 495.228 105.996 497.331 106.206 498.829C106.322 499.521 106.408 500.073 106.466 500.485C106.489 500.677 106.526 500.866 106.577 501.05C106.594 500.858 106.594 500.665 106.577 500.472C106.577 500.065 106.466 499.513 106.379 498.816C106.194 497.318 105.934 495.162 105.587 492.415C105.241 489.668 104.758 486.251 104.152 482.321C103.855 480.363 103.533 478.26 103.199 476.039C102.865 473.817 102.419 471.465 101.961 469.007C100.315 459.136 98.0137 447.465 95.3034 434.532C92.5932 421.599 89.19 407.483 85.4773 392.71C81.7647 377.937 77.8293 364.005 74.129 351.387C70.4288 338.77 66.8523 327.427 63.6841 318.003C62.8591 315.637 62.1125 313.39 61.4442 311.261L59.3527 305.28C58.1152 301.548 56.8776 298.341 55.9495 295.738C55.0213 293.136 54.2293 291.151 53.7095 289.745C53.4496 289.088 53.2516 288.575 53.1155 288.194C53.0512 287.999 52.9725 287.81 52.8804 287.629Z" fill="#263238"/>
<path d="M149.409 341.017C149.409 341.017 149.298 341.109 149.1 341.319L148.258 342.253C147.528 343.081 146.464 344.329 145.139 345.972C141.371 350.579 137.913 355.463 134.794 360.588C130.135 368.214 126.495 376.49 123.977 385.179C121.069 394.957 119.275 406.077 117.48 417.708C113.916 440.972 109.523 461.818 106.342 476.854C104.746 484.358 103.446 490.444 102.531 494.702C102.098 496.766 101.763 498.395 101.528 499.552C101.417 500.078 101.343 500.498 101.281 500.866C101.259 501.01 101.259 501.156 101.281 501.3C101.281 501.3 101.281 501.156 101.405 500.88C101.528 500.604 101.59 500.144 101.714 499.631L102.852 494.807C103.805 490.549 105.179 484.49 106.862 476.998C110.154 461.949 114.622 441.117 118.198 417.853C119.992 406.221 121.762 395.128 124.609 385.389C127.088 376.748 130.665 368.506 135.239 360.89C138.323 355.75 141.712 350.824 145.387 346.143C146.624 344.487 147.714 343.212 148.407 342.358L149.199 341.372L149.409 341.017Z" fill="#263238"/>
<path d="M50.269 436.03C50.4727 436.103 50.6854 436.143 50.9002 436.149L52.7194 436.372L54.0312 436.504L55.5905 436.753C56.7043 436.924 57.9789 437.108 59.3031 437.424L61.4936 437.897L63.8325 438.515C65.4537 438.909 67.1368 439.54 68.9312 440.118C72.7705 441.551 76.4952 443.309 80.0691 445.375C83.6082 447.484 86.9484 449.949 90.0438 452.736C91.3869 453.973 92.6635 455.289 93.8678 456.679C94.944 457.852 95.9563 459.089 96.8998 460.385C97.7001 461.438 98.4478 462.535 99.1397 463.671C99.707 464.509 100.22 465.387 100.674 466.3L101.602 467.969C101.825 468.35 101.949 468.547 101.974 468.534C101.924 468.315 101.84 468.106 101.726 467.916L100.897 466.168C100.477 465.255 99.9931 464.376 99.4491 463.539C98.7859 462.373 98.0586 461.25 97.271 460.175C96.3498 458.838 95.3495 457.565 94.2762 456.363C93.068 454.978 91.7916 453.662 90.4521 452.42C87.3651 449.495 84.0065 446.91 80.428 444.705C76.8227 442.614 73.055 440.855 69.1664 439.448C67.3595 438.896 65.6641 438.278 64.0182 437.91L61.6545 437.319L59.4888 436.937C58.0903 436.635 56.8033 436.49 55.6771 436.359L54.1178 436.162L52.7936 436.096L50.9621 436.017C50.7317 435.985 50.4982 435.99 50.269 436.03Z" fill="#263238"/>
<path d="M45.2571 341.464C45.6256 341.947 46.0403 342.387 46.4946 342.778L50.1454 346.13C53.2145 348.916 57.4964 352.702 62.2362 356.921C66.976 361.14 71.3198 364.807 74.4632 367.54L78.1758 370.708C78.6237 371.111 79.1041 371.472 79.6113 371.786C79.2399 371.306 78.8254 370.866 78.3738 370.471L74.7602 367.159C71.691 364.373 67.4215 360.588 62.6693 356.382C57.9172 352.176 53.5981 348.496 50.4548 345.762L46.7421 342.594C46.2864 342.163 45.7885 341.784 45.2571 341.464Z" fill="#263238"/>
<path d="M40.9255 366.147C40.9255 366.344 50.1081 369.394 61.5307 372.982C72.9532 376.57 82.2843 379.33 82.3338 379.146C82.3833 378.962 73.1636 375.886 61.7287 372.298C50.2938 368.71 40.9998 365.963 40.9255 366.147Z" fill="#263238"/>
<path d="M75.0076 356.316C75.3747 355.887 75.6944 355.416 75.9605 354.91L78.4356 350.967C80.4899 347.655 83.3858 343.081 86.888 338.31C90.3903 333.539 93.6945 329.307 96.1449 326.31L99.0655 322.774C99.4525 322.378 99.797 321.937 100.093 321.46C99.641 321.796 99.2259 322.183 98.8551 322.617C98.1002 323.405 97.0483 324.562 95.7736 326.021C93.2119 328.925 89.8086 333.092 86.3311 337.915C82.8536 342.739 79.9701 347.339 78.0024 350.73C77.0248 352.426 76.2575 353.819 75.7501 354.791C75.4589 355.274 75.2103 355.785 75.0076 356.316Z" fill="#263238"/>
<path d="M107.048 370.024C107.694 371.333 108.417 372.598 109.213 373.81C110.599 376.11 112.468 379.304 114.399 382.918C116.329 386.532 117.975 389.871 119.126 392.316C119.696 393.674 120.349 394.991 121.081 396.259C120.703 394.833 120.193 393.451 119.559 392.132C118.507 389.634 116.936 386.243 114.98 382.603C113.025 378.962 111.094 375.794 109.609 373.56C108.864 372.297 108.006 371.113 107.048 370.024Z" fill="#263238"/>
<path d="M118.012 412.727C118.012 412.819 119.819 411.912 122.703 410.532C125.586 409.152 129.608 407.352 134.15 405.669C138.692 403.987 142.899 402.712 145.969 401.884C149.038 401.056 150.919 400.57 150.919 400.504C150.457 400.484 149.994 400.532 149.545 400.649C148.666 400.793 147.404 401.043 145.832 401.398C137.747 403.277 129.906 406.189 122.48 410.072C121.057 410.821 119.918 411.466 119.151 411.939C118.741 412.149 118.359 412.414 118.012 412.727Z" fill="#263238"/>
<path d="M109.387 463.776C109.387 463.776 109.572 463.881 109.956 463.986L111.614 464.433L117.802 465.945C124.567 467.448 131.255 469.321 137.838 471.557C144.392 473.884 150.668 477.015 156.537 480.889C158.777 482.4 160.522 483.741 161.698 484.7C162.29 485.224 162.909 485.711 163.554 486.159C163.554 486.159 163.418 485.975 163.133 485.686C162.849 485.397 162.428 484.976 161.896 484.477C160.281 483.04 158.591 481.702 156.834 480.468C150.998 476.441 144.702 473.221 138.098 470.887C131.491 468.631 124.758 466.814 117.938 465.445L111.75 464.131C110.97 463.96 110.181 463.841 109.387 463.776Z" fill="#263238"/>
<path d="M78.1758 476.367C78.3614 476.367 79.4133 469.52 80.6509 461.016C81.8884 452.512 82.6309 445.586 82.4453 445.559C82.2597 445.533 81.2078 452.407 79.9702 460.911C78.7327 469.415 78.052 476.341 78.1758 476.367Z" fill="#263238"/>
<path d="M45.6777 463.842C46.7313 462.681 47.7111 461.447 48.6107 460.148C50.368 457.822 52.7936 454.628 55.5533 451.145C58.3131 447.662 60.85 444.574 62.7064 442.339C63.7693 441.172 64.7614 439.934 65.6765 438.633C65.3283 438.871 65.0119 439.159 64.7359 439.487C64.1667 440.052 63.3746 440.92 62.397 441.998C60.454 444.153 57.8428 447.255 55.0831 450.685C52.3234 454.116 49.9473 457.428 48.289 459.886C47.4474 461.095 46.7915 462.081 46.3584 462.764C46.0866 463.089 45.8576 463.451 45.6777 463.842Z" fill="#263238"/>
<path d="M131.675 495.846V512.893H127.653L113.384 560.734H81.7398L67.9164 513.366L62.5579 512.893V495.846H131.675Z" fill="#749F82"/>
<g opacity="0.3">
<path d="M131.675 495.846V512.893H127.653L113.384 560.734H81.7398L67.9164 513.366L62.5579 512.893V495.846H131.675Z" fill="black"/>
</g>
<path d="M65.231 513.366C65.231 513.563 79.2152 513.721 96.4419 513.721C113.668 513.721 127.653 513.563 127.653 513.366C127.653 513.169 113.681 513.011 96.4419 513.011C79.2028 513.011 65.231 513.169 65.231 513.366Z" fill="#263238"/>
<path d="M42.4727 403.685C43.1325 403.938 43.8115 404.132 44.5022 404.263L50.0588 405.695C54.7367 406.918 61.1967 408.784 68.1393 411.281C75.082 413.779 81.3068 416.407 85.7373 418.431L90.9721 420.863C91.5979 421.197 92.2475 421.478 92.915 421.704C92.335 421.286 91.7222 420.921 91.0834 420.613C89.8459 419.956 88.1257 419.049 85.9229 417.985C80.1907 415.212 74.3295 412.751 68.3621 410.611C62.3902 408.477 56.3181 406.674 50.1702 405.209C47.8065 404.657 45.8883 404.25 44.5517 404.013C43.8693 403.838 43.1735 403.728 42.4727 403.685Z" fill="#263238"/>
<path d="M75.7378 539.929C75.7378 540.126 85.5515 540.284 97.6424 540.284C109.733 540.284 119.535 540.126 119.535 539.929C119.535 539.732 109.733 539.574 97.6424 539.574C85.5515 539.574 75.7378 539.732 75.7378 539.929Z" fill="#FAFAFA"/>
<path d="M74.5127 535.972C74.5127 536.17 84.9081 536.327 97.7167 536.327C110.525 536.327 120.921 536.17 120.921 535.972C120.921 535.775 110.538 535.617 97.7167 535.617C84.8957 535.617 74.5127 535.775 74.5127 535.972Z" fill="#FAFAFA"/>
<path d="M848.375 560.997C848.375 561.195 659.723 561.352 427.065 561.352C194.406 561.352 5.70508 561.195 5.70508 560.997C5.70508 560.8 194.381 560.656 427.04 560.656C659.698 560.656 848.375 560.813 848.375 560.997Z" fill="#263238"/>
<path d="M732.763 61.0901H401.113V279.217H680.304L697.592 321.447L712.913 279.217H732.763V61.0901Z" fill="#FAFAFA"/>
<path d="M732.714 61.077C732.714 63.1931 732.8 145.194 732.961 279.257V279.519H712.913L713.148 279.349C708.359 292.584 703.186 306.844 697.84 321.578L697.604 322.248L697.332 321.591C691.912 308.369 686.058 294.056 680.007 279.362L680.266 279.546H427.807H400.792V279.204C400.792 201.461 400.792 127.688 400.792 61.0245V60.7222H401.089L732.751 61.0245L401.089 61.3399L401.386 61.0245C401.386 127.648 401.386 201.422 401.386 279.204L401.064 278.862H427.77H680.229H680.415L680.489 279.046L697.815 321.289H697.307L712.678 279.099L712.74 278.915H732.714L732.466 279.178C732.714 145.142 732.714 63.1931 732.714 61.077Z" fill="#263238"/>
<path d="M732.59 82.3695C732.59 82.6325 658.486 82.856 567.105 82.856C475.725 82.856 401.608 82.6325 401.608 82.3695C401.608 82.1065 475.7 81.9487 567.105 81.9487C658.51 81.9487 732.59 82.1065 732.59 82.3695Z" fill="#263238"/>
<path d="M418.736 72.7483C418.736 73.3207 418.576 73.8803 418.276 74.3561C417.977 74.8319 417.551 75.2025 417.052 75.4209C416.554 75.6394 416.006 75.6959 415.478 75.5832C414.949 75.4706 414.464 75.1939 414.084 74.7882C413.704 74.3825 413.445 73.866 413.342 73.3043C413.238 72.7425 413.294 72.1607 413.502 71.6326C413.71 71.1044 414.06 70.6538 414.51 70.3376C414.959 70.0215 415.487 69.8541 416.026 69.8567C416.746 69.8602 417.435 70.1664 417.943 70.7083C418.451 71.2502 418.736 71.9836 418.736 72.7483Z" fill="#263238"/>
<path d="M428.574 72.7483C428.574 73.3207 428.414 73.8803 428.115 74.3561C427.815 74.8319 427.389 75.2025 426.891 75.4209C426.393 75.6394 425.844 75.6959 425.316 75.5832C424.788 75.4706 424.302 75.1939 423.922 74.7882C423.542 74.3825 423.284 73.866 423.18 73.3043C423.076 72.7425 423.132 72.1607 423.34 71.6326C423.548 71.1044 423.899 70.6538 424.348 70.3376C424.798 70.0215 425.325 69.8541 425.864 69.8567C426.584 69.8602 427.273 70.1664 427.781 70.7083C428.289 71.2502 428.574 71.9836 428.574 72.7483Z" fill="#263238"/>
<path d="M438.413 72.7482C438.413 73.3201 438.253 73.8792 437.954 74.3547C437.655 74.8302 437.23 75.2008 436.732 75.4196C436.235 75.6385 435.687 75.6958 435.159 75.5842C434.631 75.4726 434.146 75.1972 433.765 74.7928C433.384 74.3885 433.125 73.8732 433.02 73.3123C432.915 72.7514 432.969 72.17 433.175 71.6417C433.381 71.1133 433.73 70.6617 434.178 70.344C434.625 70.0263 435.152 69.8567 435.69 69.8567C436.412 69.8567 437.105 70.1613 437.616 70.7036C438.126 71.2459 438.413 71.9813 438.413 72.7482Z" fill="#263238"/>
<path d="M437.287 121.379L429.416 124.612L437.287 127.832V129.79L427.386 125.624V123.613L437.287 119.433V121.379Z" fill="#263238"/>
<path d="M445.479 113.033H447.41L440.084 135.219H438.178L445.479 113.033Z" fill="#263238"/>
<path d="M457.978 123.613V125.637L448.078 129.804V127.845L455.974 124.625L448.078 121.379V119.42L457.978 123.613Z" fill="#263238"/>
<path d="M460.528 131.381C460.524 131.169 460.561 130.959 460.636 130.763C460.711 130.567 460.822 130.389 460.963 130.239C461.103 130.089 461.271 129.971 461.456 129.892C461.641 129.813 461.838 129.774 462.038 129.777C462.235 129.775 462.43 129.816 462.612 129.896C462.794 129.977 462.959 130.095 463.096 130.245C463.234 130.395 463.341 130.573 463.413 130.768C463.484 130.963 463.517 131.172 463.51 131.381C463.517 131.591 463.484 131.801 463.413 131.997C463.342 132.194 463.235 132.374 463.098 132.525C462.96 132.677 462.796 132.799 462.614 132.882C462.432 132.965 462.236 133.009 462.038 133.011C461.837 133.011 461.639 132.968 461.454 132.886C461.269 132.804 461.102 132.683 460.961 132.532C460.821 132.38 460.71 132.2 460.636 132.003C460.561 131.805 460.525 131.594 460.528 131.381Z" fill="#263238"/>
<path d="M465.577 131.381C465.572 131.169 465.608 130.958 465.682 130.761C465.756 130.564 465.867 130.385 466.008 130.235C466.149 130.085 466.318 129.967 466.503 129.888C466.689 129.81 466.887 129.772 467.087 129.777C467.283 129.777 467.477 129.819 467.657 129.9C467.838 129.981 468.001 130.1 468.137 130.25C468.274 130.4 468.38 130.577 468.451 130.771C468.521 130.965 468.554 131.173 468.547 131.381C468.554 131.59 468.521 131.799 468.451 131.995C468.381 132.19 468.275 132.369 468.139 132.521C468.003 132.673 467.84 132.794 467.659 132.878C467.479 132.962 467.284 133.007 467.087 133.011C466.886 133.012 466.687 132.971 466.501 132.89C466.316 132.808 466.148 132.688 466.007 132.536C465.866 132.384 465.755 132.203 465.681 132.005C465.608 131.806 465.572 131.594 465.577 131.381Z" fill="#263238"/>
<path d="M470.614 131.381C470.609 131.169 470.644 130.958 470.718 130.761C470.792 130.564 470.903 130.385 471.045 130.235C471.186 130.085 471.354 129.967 471.54 129.888C471.725 129.81 471.924 129.772 472.124 129.777C472.32 129.777 472.514 129.819 472.694 129.9C472.875 129.981 473.038 130.1 473.174 130.25C473.31 130.4 473.417 130.577 473.487 130.771C473.558 130.965 473.591 131.173 473.584 131.381C473.59 131.59 473.558 131.799 473.488 131.995C473.418 132.19 473.311 132.369 473.175 132.521C473.04 132.673 472.876 132.794 472.696 132.878C472.515 132.962 472.321 133.007 472.124 133.011C471.923 133.012 471.724 132.971 471.538 132.89C471.352 132.808 471.184 132.688 471.043 132.536C470.902 132.384 470.792 132.203 470.718 132.005C470.644 131.806 470.609 131.594 470.614 131.381Z" fill="#263238"/>
<path d="M646.704 152.542C646.704 152.805 597.685 153.015 537.219 153.015C476.752 153.015 427.72 152.805 427.72 152.542C427.72 152.279 476.74 152.055 537.219 152.055C597.697 152.055 646.704 152.266 646.704 152.542Z" fill="#455A64"/>
<path d="M682.469 153.225C682.469 153.488 677.767 153.712 671.95 153.712C666.134 153.712 661.431 153.488 661.431 153.225C661.431 152.962 666.146 152.739 671.95 152.739C677.754 152.739 682.469 152.923 682.469 153.225Z" fill="#263238"/>
<path d="M713.222 153.225C713.222 153.488 708.074 153.712 701.738 153.712C695.402 153.712 690.241 153.488 690.241 153.225C690.241 152.962 695.389 152.739 701.738 152.739C708.086 152.739 713.222 152.923 713.222 153.225Z" fill="#263238"/>
<path d="M567.167 172.138C567.167 172.401 536.006 172.612 497.568 172.612C459.129 172.612 427.98 172.401 427.98 172.138C427.98 171.875 459.129 171.652 497.568 171.652C536.006 171.652 567.167 171.862 567.167 172.138Z" fill="#455A64"/>
<path d="M566.165 245.255C566.165 245.518 535.003 245.728 496.578 245.728C458.152 245.728 426.978 245.518 426.978 245.255C426.978 244.992 458.139 244.768 496.578 244.768C535.016 244.768 566.165 244.992 566.165 245.255Z" fill="#455A64"/>
<path d="M617.733 172.138C617.733 172.401 609.256 172.612 598.799 172.612C588.341 172.612 579.864 172.401 579.864 172.138C579.864 171.875 588.341 171.652 598.799 171.652C609.256 171.652 617.733 171.862 617.733 172.138Z" fill="#263238"/>
<path d="M617.337 245.255C617.337 245.518 608.86 245.728 598.403 245.728C587.945 245.728 579.468 245.518 579.468 245.255C579.468 244.992 587.945 244.768 598.403 244.768C608.86 244.768 617.337 244.992 617.337 245.255Z" fill="#263238"/>
<path d="M437.113 182.101C437.113 182.364 435.01 182.588 432.411 182.588C429.812 182.588 427.72 182.364 427.72 182.101C427.72 181.838 429.824 181.628 432.411 181.628C434.997 181.628 437.113 181.838 437.113 182.101Z" fill="#749F82"/>
<path d="M469.475 182.311C469.475 182.574 464.909 182.785 459.278 182.785C453.647 182.785 449.081 182.574 449.081 182.311C449.081 182.048 453.647 181.825 459.278 181.825C464.909 181.825 469.475 182.048 469.475 182.311Z" fill="#263238"/>
<path d="M490.155 182.311C490.155 182.574 486.244 182.785 481.418 182.785C476.591 182.785 472.681 182.574 472.681 182.311C472.681 182.048 476.591 181.825 481.418 181.825C486.244 181.825 490.155 182.048 490.155 182.311Z" fill="#263238"/>
<path d="M516.415 182.311C516.415 182.574 512.431 182.785 507.518 182.785C502.604 182.785 498.607 182.574 498.607 182.311C498.607 182.048 502.592 181.825 507.518 181.825C512.443 181.825 516.415 182.048 516.415 182.311Z" fill="#263238"/>
<path d="M539.397 182.311C539.397 182.574 535.771 182.785 531.303 182.785C526.835 182.785 523.209 182.574 523.209 182.311C523.209 182.048 526.835 181.825 531.303 181.825C535.771 181.825 539.397 182.048 539.397 182.311Z" fill="#263238"/>
<path d="M615.469 182.311C615.469 182.574 599.529 182.785 579.864 182.785C560.2 182.785 544.248 182.574 544.248 182.311C544.248 182.048 560.187 181.825 579.864 181.825C599.541 181.825 615.469 182.048 615.469 182.311Z" fill="#263238"/>
<path d="M435.814 194.824C435.814 195.087 434.007 195.31 431.767 195.31C429.527 195.31 427.72 195.087 427.72 194.824C427.72 194.561 429.527 194.337 431.767 194.337C434.007 194.337 435.814 194.561 435.814 194.824Z" fill="#749F82"/>
<path d="M436.136 207.888C436.136 208.151 434.255 208.375 431.928 208.375C429.602 208.375 427.72 208.151 427.72 207.888C427.72 207.625 429.602 207.402 431.928 207.402C434.255 207.402 436.136 207.625 436.136 207.888Z" fill="#749F82"/>
<path d="M436.136 222.675C436.136 222.937 434.255 223.148 431.928 223.148C429.602 223.148 427.72 222.937 427.72 222.675C427.72 222.412 429.602 222.188 431.928 222.188C434.255 222.188 436.136 222.398 436.136 222.675Z" fill="#749F82"/>
<path d="M512.851 221.978C512.851 222.254 498.793 222.465 481.455 222.465C464.117 222.465 450.058 222.254 450.058 221.978C450.058 221.702 464.117 221.505 481.455 221.505C498.793 221.505 512.851 221.715 512.851 221.978Z" fill="#263238"/>
<path d="M507.356 207.888C507.356 208.151 493.942 208.375 477.408 208.375C460.874 208.375 447.472 208.151 447.472 207.888C447.472 207.625 460.874 207.402 477.408 207.402C493.942 207.402 507.356 207.625 507.356 207.888Z" fill="#263238"/>
<path d="M652.05 194.14C652.05 194.403 606.385 194.614 550.089 194.614C493.793 194.614 448.115 194.403 448.115 194.14C448.115 193.877 493.756 193.654 550.089 193.654C606.422 193.654 652.05 193.864 652.05 194.14Z" fill="#263238"/>
<path d="M753.133 150.294V335.668L725.994 359.707H753.133H755.806H867.928V150.294H753.133Z" fill="#FAFAFA"/>
<path d="M753.133 150.294C753.133 150.294 753.814 150.294 755.138 150.294H761.078H783.936L867.928 150.163H868.175V150.425C868.175 206.377 868.175 279.454 868.25 359.838V360.18H848.028H725.994H725.177L725.808 359.615L752.96 335.576L752.849 335.812C752.91 280.387 752.96 234.017 752.997 201.487C752.997 185.255 753.059 172.48 753.071 163.753C753.071 159.416 753.071 156.09 753.071 153.816C753.071 152.712 753.071 151.858 753.071 151.28C753.071 150.701 753.071 150.439 753.071 150.439C753.071 150.439 753.071 150.741 753.071 151.319C753.071 151.898 753.071 152.765 753.071 153.948C753.071 156.222 753.071 159.573 753.071 163.937C753.071 172.677 753.071 185.479 753.146 201.724C753.146 234.214 753.22 280.584 753.282 335.865V335.996L753.183 336.088L726.056 360.154L725.858 359.589H847.892H867.792L867.47 359.93C867.47 279.546 867.47 206.469 867.544 150.517L867.792 150.767L783.948 150.636L761.177 150.294H755.187H753.133Z" fill="#263238"/>
<path d="M763.566 159.494C763.566 159.983 763.429 160.461 763.173 160.867C762.918 161.274 762.554 161.59 762.129 161.777C761.704 161.964 761.236 162.013 760.785 161.918C760.334 161.823 759.919 161.587 759.594 161.242C759.268 160.896 759.047 160.456 758.957 159.976C758.867 159.497 758.913 159 759.089 158.549C759.266 158.097 759.564 157.711 759.946 157.44C760.329 157.168 760.779 157.023 761.239 157.023C761.856 157.023 762.448 157.284 762.884 157.747C763.32 158.211 763.566 158.839 763.566 159.494Z" fill="#263238"/>
<path d="M771.981 159.494C771.981 159.983 771.844 160.461 771.589 160.867C771.333 161.274 770.97 161.59 770.545 161.777C770.119 161.964 769.652 162.013 769.2 161.918C768.749 161.823 768.334 161.587 768.009 161.242C767.684 160.896 767.462 160.456 767.372 159.976C767.283 159.497 767.329 159 767.505 158.549C767.681 158.097 767.979 157.711 768.362 157.44C768.744 157.168 769.194 157.023 769.654 157.023C770.271 157.023 770.863 157.284 771.299 157.747C771.736 158.211 771.981 158.839 771.981 159.494Z" fill="#263238"/>
<path d="M780.396 159.494C780.396 159.983 780.26 160.461 780.004 160.867C779.749 161.274 779.385 161.59 778.96 161.777C778.535 161.964 778.067 162.013 777.616 161.918C777.164 161.823 776.75 161.587 776.425 161.242C776.099 160.896 775.878 160.456 775.788 159.976C775.698 159.497 775.744 159 775.92 158.549C776.096 158.097 776.395 157.711 776.777 157.44C777.16 157.168 777.61 157.023 778.07 157.023C778.687 157.023 779.279 157.284 779.715 157.747C780.151 158.211 780.396 158.839 780.396 159.494Z" fill="#263238"/>
<path d="M836.37 216.629C836.37 216.852 821.817 217.023 803.872 217.023C785.928 217.023 771.375 216.852 771.375 216.629C771.375 216.405 785.916 216.234 803.872 216.234C821.829 216.234 836.37 216.405 836.37 216.629Z" fill="#749F82"/>
<path d="M849.934 233.4C849.934 233.61 832.225 233.794 810.332 233.794C788.44 233.794 770.731 233.61 770.731 233.4C770.731 233.189 788.44 233.005 810.332 233.005C832.225 233.005 849.934 233.176 849.934 233.4Z" fill="#749F82"/>
<path d="M853.151 295.962C853.151 296.186 834.266 296.357 810.976 296.357C787.685 296.357 768.8 296.186 768.8 295.962C768.8 295.738 787.685 295.567 810.976 295.567C834.266 295.567 853.151 295.752 853.151 295.962Z" fill="#749F82"/>
<path d="M777.463 241.93C774.809 242.456 772.086 242.456 769.432 241.93C772.086 241.404 774.809 241.404 777.463 241.93Z" fill="#749F82"/>
<path d="M805.172 242.101C805.172 242.324 801.261 242.495 796.509 242.495C791.757 242.495 787.846 242.324 787.846 242.101C793.652 241.575 799.49 241.575 805.296 242.101H805.172Z" fill="#749F82"/>
<path d="M822.894 242.101C822.894 242.324 819.552 242.495 815.468 242.495C811.384 242.495 807.981 242.324 807.981 242.101C812.956 241.574 817.968 241.574 822.943 242.101H822.894Z" fill="#749F82"/>
<path d="M776.362 252.813C774.078 253.339 771.715 253.339 769.432 252.813C771.715 252.286 774.078 252.286 776.362 252.813Z" fill="#749F82"/>
<path d="M776.634 263.998C774.259 264.524 771.807 264.524 769.432 263.998C771.805 263.454 774.261 263.454 776.634 263.998Z" fill="#749F82"/>
<path d="M776.634 276.641C774.259 277.168 771.807 277.168 769.432 276.641C771.807 276.115 774.259 276.115 776.634 276.641Z" fill="#749F82"/>
<path d="M842.286 276.05C842.286 276.274 830.257 276.445 815.419 276.445C800.581 276.445 788.552 276.274 788.552 276.05C788.552 275.826 800.581 275.655 815.419 275.655C830.257 275.655 842.286 275.839 842.286 276.05Z" fill="#749F82"/>
<path d="M837.571 263.997C837.571 264.208 826.099 264.392 811.954 264.392C797.808 264.392 786.336 264.208 786.336 263.997C786.336 263.787 797.796 263.59 811.954 263.59C826.111 263.59 837.571 263.774 837.571 263.997Z" fill="#749F82"/>
<path d="M781.881 312.667C779.506 313.194 777.054 313.194 774.679 312.667C777.054 312.141 779.506 312.141 781.881 312.667Z" fill="#749F82"/>
<path d="M781.881 325.324C779.506 325.851 777.054 325.851 774.679 325.324C777.052 324.78 779.508 324.78 781.881 325.324Z" fill="#749F82"/>
<path d="M847.533 324.733C847.533 324.943 835.504 325.127 820.666 325.127C805.828 325.127 793.799 324.943 793.799 324.733C793.799 324.522 805.815 324.338 820.666 324.338C835.517 324.338 847.533 324.509 847.533 324.733Z" fill="#749F82"/>
<path d="M842.855 312.667C842.855 312.891 831.383 313.062 817.238 313.062C803.093 313.062 791.608 312.891 791.608 312.667C791.608 312.444 803.08 312.272 817.238 312.272C831.395 312.272 842.855 312.444 842.855 312.667Z" fill="#749F82"/>
<path d="M856.629 252.221C856.629 252.445 841.011 252.616 821.755 252.616C802.499 252.616 786.881 252.445 786.881 252.221C786.881 251.997 802.499 251.826 821.755 251.826C841.011 251.826 856.629 252.011 856.629 252.221Z" fill="#749F82"/>
<path d="M866.851 169.194C866.851 169.405 841.642 169.589 810.555 169.589C779.468 169.589 754.259 169.405 754.259 169.194C754.259 168.984 779.456 168.8 810.555 168.8C841.655 168.8 866.851 168.971 866.851 169.194Z" fill="#263238"/>
<path d="M795.123 206.522C787.202 207.048 779.258 207.048 771.337 206.522C771.337 206.298 776.659 206.127 783.23 206.127C789.802 206.127 795.123 206.298 795.123 206.522Z" fill="#749F82"/>
<path d="M781.658 183.639C781.658 183.863 779.183 184.034 776.052 184.034C772.921 184.034 770.446 183.863 770.446 183.639C774.167 183.113 777.937 183.113 781.658 183.639Z" fill="#749F82"/>
<path d="M682.308 453.59L707.233 427.421L662.78 346.577C658.154 340.955 652.298 336.626 645.727 333.972L630.072 327.65L591.151 320.067L563.529 331.672C560.13 333.092 557.27 335.668 555.396 338.997C553.522 342.326 552.739 346.221 553.171 350.073L560.398 414.686L564.655 498.803L665.057 480.297L654.959 449.187L655.293 400.662L682.308 453.59Z" fill="#749F82"/>
<path d="M655.874 447.097C656.109 447.097 656.171 430.287 656.011 409.56C655.85 388.833 655.54 372.022 655.305 372.022C655.07 372.022 655.008 388.833 655.169 409.56C655.33 430.287 655.639 447.097 655.874 447.097Z" fill="#263238"/>
<path d="M652.199 459.426L591.559 433.494C589.159 432.467 587.077 430.75 585.547 428.534C584.016 426.319 583.098 423.694 582.896 420.955L578.466 359.181C578.466 359.181 578.986 332.895 563.541 331.58L554.742 335.247C543.369 341.714 540.56 359.273 542.132 372.837C544.322 392.105 545.238 419.378 547.701 436.109C549.718 449.792 557.452 460.609 569.704 465.353L644.427 482.532L652.199 459.426Z" fill="#749F82"/>
<path d="M579.32 368.605C579.412 369.069 579.474 369.539 579.505 370.011C579.604 371.023 579.741 372.377 579.901 374.086C580.211 377.7 580.644 382.8 581.139 389.069C581.634 395.339 582.253 402.949 582.933 411.295C583.094 413.384 583.268 415.527 583.441 417.722C583.562 419.928 583.822 422.124 584.221 424.293C584.64 426.503 585.69 428.522 587.228 430.076C588.895 431.623 590.789 432.87 592.834 433.77C609.553 441.459 625.01 447.807 636.148 452.262L649.439 457.52L653.053 458.926C653.481 459.069 653.895 459.253 654.29 459.478C653.87 459.381 653.457 459.254 653.053 459.097L649.34 457.783C646.16 456.665 641.581 454.983 635.95 452.841C624.701 448.516 609.256 442.326 592.475 434.558C590.351 433.614 588.387 432.309 586.659 430.694C585.003 429.026 583.874 426.854 583.428 424.477C583.026 422.256 582.77 420.007 582.661 417.748C582.488 415.557 582.327 413.415 582.179 411.321C581.56 402.962 581.015 395.431 580.545 389.069C580.075 382.708 579.778 377.7 579.518 374.073C579.419 372.364 579.345 370.997 579.283 369.985C579.267 369.525 579.279 369.064 579.32 368.605Z" fill="#263238"/>
<path d="M544.607 402.186C544.693 402.453 544.734 402.733 544.73 403.014C544.73 403.658 544.854 404.447 544.928 405.393C545.114 407.601 545.362 410.559 545.646 414.16C545.931 417.761 546.401 422.256 547.008 427.119C547.606 432.394 548.524 437.623 549.755 442.773C550.32 445.423 551.321 447.945 552.713 450.225C554.053 452.336 555.569 454.316 557.242 456.14C560.077 459.247 563.355 461.86 566.957 463.881C570.308 465.691 573.902 466.941 577.612 467.588C577.349 467.619 577.083 467.619 576.82 467.588C576.063 467.543 575.311 467.442 574.568 467.285C571.81 466.731 569.139 465.767 566.635 464.42C562.939 462.439 559.57 459.833 556.66 456.705C554.937 454.861 553.379 452.85 552.007 450.698C550.557 448.345 549.509 445.737 548.913 442.996C547.679 437.81 546.777 432.541 546.215 427.224C545.659 422.335 545.287 417.919 544.978 414.212C544.669 410.506 544.594 407.496 544.52 405.42C544.52 404.46 544.52 403.671 544.52 403.014C544.517 402.736 544.546 402.457 544.607 402.186Z" fill="#263238"/>
<path d="M570.509 445.415C570.66 444.201 571.035 443.032 571.61 441.971C572.855 439.333 574.585 436.986 576.697 435.07C578.81 433.153 581.263 431.706 583.911 430.812C584.985 430.376 586.128 430.166 587.277 430.195C587.277 430.339 586.04 430.602 584.109 431.391C581.605 432.422 579.28 433.887 577.228 435.728C575.188 437.597 573.46 439.819 572.117 442.3C571.078 444.166 570.595 445.454 570.509 445.415Z" fill="#263238"/>
<g opacity="0.3">
<path d="M634.762 452.065C628.277 448.122 621.928 445.178 615.147 441.905C608.365 438.633 601.719 434.427 597.289 428.079C588.911 416.092 589.864 398.795 581.3 386.966L582.97 410.821C583.49 418.116 582.438 425.279 586.856 430.274C590.569 434.44 597.846 437.647 602.945 439.474C613.278 443.088 624.404 448.464 634.725 452.092" fill="black"/>
</g>
<path opacity="0.3" d="M655.305 376.57L660.552 410.953L655.59 401.214L655.305 376.57Z" fill="black"/>
<path d="M577.488 355.33C577.029 355.436 576.559 355.476 576.09 355.448L572.253 355.554C569.023 355.646 564.568 355.816 559.655 356.184C554.742 356.552 550.312 357.065 547.094 357.499L543.295 357.972C542.833 358.057 542.365 358.092 541.896 358.077C542.331 357.886 542.79 357.762 543.258 357.709C544.149 357.512 545.436 357.275 546.97 357.013C550.176 356.487 554.618 355.908 559.544 355.527C564.469 355.146 568.949 355.054 572.192 355.094C573.813 355.094 575.125 355.159 576.028 355.212C576.517 355.195 577.007 355.235 577.488 355.33Z" fill="#455A64"/>
<path d="M579.258 388.267C579.258 388.451 571.313 389.306 561.499 390.16C551.685 391.014 543.691 391.58 543.678 391.382C543.666 391.185 551.611 390.344 561.437 389.477C571.263 388.609 579.258 388.07 579.258 388.267Z" fill="#455A64"/>
<path d="M582.141 422.848C581.756 423.148 581.341 423.404 580.904 423.61C580.075 424.07 578.862 424.675 577.315 425.358C569.285 428.924 560.727 430.962 552.032 431.378C550.361 431.457 549.012 431.457 548.084 431.378C547.603 431.406 547.12 431.366 546.649 431.259C547.121 431.16 547.602 431.111 548.084 431.115C549.012 431.115 550.349 430.997 552.007 430.852C556.293 430.532 560.553 429.89 564.754 428.933C568.963 427.935 573.098 426.617 577.129 424.99C578.676 424.359 579.926 423.833 580.842 423.452C581.252 423.198 581.688 422.996 582.141 422.848Z" fill="#455A64"/>
<path d="M603.712 440.591C601.519 442.035 599.499 443.756 597.697 445.717C596.055 447.83 594.648 450.136 593.502 452.591C593.584 451.769 593.81 450.971 594.17 450.238C595.705 446.569 598.308 443.519 601.596 441.537C602.234 441.074 602.954 440.752 603.712 440.591Z" fill="#455A64"/>
<path d="M625.654 463.355C626.616 458.585 628.87 454.218 632.138 450.79C632.287 450.922 630.381 453.419 628.599 456.902C626.817 460.385 625.839 463.421 625.654 463.355Z" fill="#455A64"/>
<path d="M591.076 336.01C588.266 336.893 585.4 337.56 582.5 338.007C579.646 338.668 576.751 339.107 573.837 339.322C576.645 338.429 579.512 337.761 582.414 337.324C585.267 336.663 588.163 336.224 591.076 336.01Z" fill="#455A64"/>
<path d="M649.155 338.822C645.17 338.662 641.196 338.276 637.249 337.665C633.281 337.283 629.336 336.669 625.431 335.825C629.415 335.993 633.389 336.379 637.336 336.982C641.304 337.372 645.249 337.987 649.155 338.822Z" fill="#455A64"/>
<path d="M654.105 367.501C653.855 367.541 653.6 367.541 653.35 367.501H651.172H643.165C636.408 367.501 627.077 367.501 616.768 367.83C606.459 368.158 597.141 368.566 590.384 368.947L582.389 369.394L580.223 369.486C579.969 369.526 579.71 369.526 579.456 369.486C579.704 369.422 579.956 369.382 580.211 369.367L582.377 369.131C584.258 368.947 586.98 368.723 590.359 368.474C597.103 367.974 606.447 367.448 616.756 367.159C627.064 366.87 636.408 366.896 643.177 367.028C646.556 367.094 649.291 367.172 651.172 367.264L653.35 367.37C653.605 367.388 653.858 367.432 654.105 367.501Z" fill="#455A64"/>
<path d="M654.823 403.842C654.823 404.026 638.92 405.288 619.28 406.668C599.64 408.048 583.701 408.994 583.688 408.81C583.676 408.626 599.591 407.352 619.231 405.985C638.871 404.618 654.81 403.645 654.823 403.842Z" fill="#455A64"/>
<path d="M653.127 435.846C652.702 436.096 652.254 436.298 651.79 436.451C650.912 436.806 649.637 437.266 648.078 437.765C644.897 438.869 640.455 440.249 635.492 441.524C630.529 442.799 625.988 443.706 622.683 444.245C621.025 444.534 619.689 444.731 618.76 444.836C618.278 444.922 617.789 444.957 617.3 444.942C617.76 444.763 618.237 444.64 618.723 444.574L622.597 443.772C625.876 443.102 630.393 442.116 635.343 440.854C640.294 439.592 644.736 438.291 647.942 437.305L651.741 436.136C652.19 435.979 652.656 435.882 653.127 435.846Z" fill="#455A64"/>
<path d="M678.583 377.832C674.793 379.227 670.935 380.403 667.025 381.354C663.169 382.53 659.257 383.486 655.305 384.219C659.096 382.828 662.955 381.652 666.864 380.697C670.718 379.515 674.631 378.558 678.583 377.832Z" fill="#455A64"/>
<path d="M666.443 353.267C664.797 353.928 663.08 354.37 661.332 354.58C659.614 355.025 657.852 355.245 656.085 355.237C657.738 354.586 659.457 354.145 661.208 353.924C662.921 353.48 664.679 353.259 666.443 353.267Z" fill="#455A64"/>
<path d="M579.505 360.89C579.382 360.89 579.184 358.708 578.058 355.409C576.596 351.097 574.152 347.236 570.943 344.172C567.734 341.108 563.86 338.936 559.668 337.85C556.45 337.008 554.359 337.048 554.371 336.916C554.853 336.825 555.344 336.803 555.831 336.851C557.155 336.908 558.472 337.088 559.767 337.39C564.087 338.362 568.09 340.524 571.374 343.66C574.659 346.795 577.109 350.793 578.478 355.251C578.904 356.585 579.21 357.958 579.394 359.352C579.497 359.857 579.535 360.374 579.505 360.89Z" fill="#263238"/>
<path d="M651.778 343.37C652.71 347.327 653.425 351.338 653.919 355.383C654.637 359.393 655.137 363.443 655.416 367.514C654.499 363.55 653.789 359.535 653.288 355.488C652.571 351.482 652.067 347.436 651.778 343.37Z" fill="#263238"/>
<path d="M719.398 537.09C719.398 537.09 766.028 550.785 767.897 551.547C770.706 552.599 770.236 563.521 765.867 563.376C763.801 563.297 730.053 564.691 725.783 564.428C721.514 564.165 708.656 558.763 708.656 558.763L719.398 537.09Z" fill="#749F82"/>
<path d="M738.827 555.976C739.062 555.976 739.371 553.348 740.881 550.719C742.391 548.09 744.322 546.355 744.173 546.158C744.025 545.961 741.772 547.368 740.201 550.298C738.629 553.229 738.629 556.003 738.827 555.976Z" fill="#263238"/>
<path d="M733.951 553.637C734.174 553.637 734.644 551.337 735.894 548.748C737.144 546.159 738.604 544.358 738.369 544.187C736.925 545.217 735.798 546.675 735.127 548.38C733.951 551.166 733.766 553.624 733.951 553.637Z" fill="#263238"/>
<path d="M729.397 552.349C729.632 552.349 729.397 549.852 730.486 547.092C731.575 544.331 733.196 542.649 733.035 542.465C732.875 542.281 730.845 543.779 729.768 546.802C728.692 549.825 729.211 552.48 729.397 552.349Z" fill="#263238"/>
<path d="M730.238 545.909C730.653 544.73 730.826 543.471 730.746 542.216C730.73 540.855 730.569 539.502 730.263 538.181C730.089 537.396 729.857 536.627 729.57 535.88C729.429 535.414 729.172 534.997 728.828 534.671C728.596 534.482 728.308 534.386 728.016 534.4C727.724 534.415 727.446 534.539 727.231 534.75C726.866 535.121 726.642 535.622 726.6 536.156C726.576 536.594 726.576 537.033 726.6 537.471C726.603 538.29 726.699 539.107 726.885 539.902C727.199 541.228 727.682 542.501 728.32 543.688C728.84 544.81 729.549 545.821 730.412 546.671C730.523 546.592 729.744 545.436 728.803 543.412C728.257 542.24 727.842 541.005 727.565 539.731C727.42 538.988 727.345 538.23 727.343 537.471C727.343 536.709 727.343 535.762 727.776 535.394C727.859 535.309 727.97 535.262 728.085 535.262C728.201 535.262 728.312 535.309 728.395 535.394C728.632 535.631 728.807 535.93 728.902 536.262C729.183 536.971 729.418 537.7 729.607 538.443C729.934 539.706 730.142 541.001 730.226 542.308C730.313 544.595 730.102 545.909 730.238 545.909Z" fill="#263238"/>
<path d="M730.239 545.449C729.286 545.022 728.251 544.841 727.219 544.923C726.105 544.923 724.995 545.069 723.915 545.357C723.249 545.509 722.608 545.762 722.009 546.106C721.627 546.311 721.318 546.643 721.129 547.05C720.939 547.458 720.879 547.92 720.957 548.366C721.061 548.794 721.273 549.184 721.569 549.494C721.866 549.804 722.236 550.023 722.64 550.128C723.326 550.312 724.045 550.312 724.731 550.128C725.835 549.825 726.867 549.284 727.763 548.537C728.608 547.923 729.341 547.153 729.929 546.264C729.064 546.794 728.237 547.391 727.454 548.051C726.589 548.679 725.619 549.125 724.595 549.365C724.027 549.517 723.432 549.517 722.863 549.365C722.594 549.292 722.347 549.146 722.147 548.941C721.948 548.736 721.802 548.479 721.724 548.196C721.683 547.915 721.728 547.628 721.852 547.377C721.977 547.125 722.176 546.924 722.417 546.802C722.953 546.497 723.523 546.263 724.113 546.106C725.139 545.801 726.193 545.607 727.256 545.528C729.001 545.383 730.152 545.58 730.239 545.449Z" fill="#263238"/>
<path d="M745.993 556.515C746.215 556.515 745.993 554.373 746.908 552.047C747.824 549.72 749.383 548.353 749.185 548.169C748.987 547.985 747.168 549.142 746.191 551.731C745.213 554.32 745.795 556.594 745.993 556.515Z" fill="#263238"/>
<path d="M713.458 558.802C714.025 559.166 714.626 559.466 715.252 559.696C716.945 560.393 718.682 560.964 720.45 561.405C726.292 562.764 732.267 563.364 738.246 563.192C745.238 563.113 751.537 562.785 756.103 562.588L761.499 562.285C762.164 562.278 762.827 562.203 763.479 562.062C762.821 561.949 762.152 561.914 761.487 561.957H756.079L738.246 562.325C732.317 562.481 726.389 561.97 720.561 560.8C716.106 559.867 713.507 558.645 713.458 558.802Z" fill="#263238"/>
<path d="M712.071 559.933C712.071 560.038 713.408 559.249 715.561 558.25C718.306 556.859 721.364 556.317 724.385 556.686C727.356 557.371 730.036 559.064 732.021 561.51C732.852 562.547 733.749 563.522 734.706 564.428C734.087 563.215 733.317 562.097 732.417 561.102C731.502 559.96 730.469 558.933 729.335 558.04C727.912 556.92 726.257 556.176 724.509 555.871C721.36 555.481 718.175 556.133 715.388 557.738C714.178 558.275 713.058 559.016 712.071 559.933Z" fill="#263238"/>
<path d="M664.215 525.589C664.215 525.589 620.097 556.266 618.5 557.541C616.124 559.446 618.847 568.528 622.968 566.951C624.911 566.215 661.938 555.267 665.923 553.624C669.908 551.981 680.625 542.702 680.625 542.702L664.215 525.589Z" fill="#749F82"/>
<path d="M651.11 549.852C651.295 549.852 650.516 547.105 648.152 544.844C645.788 542.583 643.202 541.966 643.202 542.215C643.202 542.465 645.454 543.346 647.645 545.488C649.835 547.63 650.899 549.97 651.11 549.852Z" fill="#263238"/>
<path d="M655.07 546.053C655.256 545.988 654.402 543.622 652.385 541.453C650.367 539.284 648.177 538.299 648.103 538.496C648.028 538.693 649.922 539.942 651.815 542.031C653.709 544.121 654.86 546.172 655.07 546.053Z" fill="#263238"/>
<path d="M659.042 543.346C659.24 543.346 659.042 540.717 657.112 538.194C655.181 535.67 652.805 534.921 652.768 535.131C652.731 535.342 654.773 536.446 656.481 538.719C658.189 540.993 658.82 543.412 659.042 543.346Z" fill="#263238"/>
<path d="M656.431 537.523C656.543 537.523 655.936 536.209 655.429 534.014C655.139 532.742 654.965 531.444 654.909 530.137C654.867 529.366 654.867 528.594 654.909 527.823C654.91 527.479 654.991 527.141 655.144 526.838C655.21 526.737 655.308 526.666 655.421 526.639C655.533 526.613 655.651 526.632 655.751 526.693C656.258 526.903 656.518 527.81 656.753 528.533C656.972 529.255 657.117 530 657.186 530.754C657.3 532.069 657.263 533.393 657.075 534.697C656.765 536.919 656.357 538.272 656.481 538.312C657.064 537.228 657.45 536.038 657.619 534.802C657.889 533.465 657.985 532.094 657.904 530.728C657.851 529.912 657.709 529.105 657.483 528.323C657.364 527.906 657.219 527.497 657.05 527.1C656.861 526.608 656.509 526.206 656.06 525.97C655.796 525.836 655.495 525.806 655.212 525.886C654.928 525.965 654.681 526.149 654.513 526.404C654.279 526.827 654.151 527.307 654.142 527.797C654.092 528.602 654.092 529.41 654.142 530.215C654.229 531.555 654.466 532.879 654.847 534.158C655.135 535.39 655.676 536.54 656.431 537.523Z" fill="#263238"/>
<path d="M656.332 537.024C656.394 537.142 657.421 536.59 659.203 536.13C660.238 535.865 661.295 535.711 662.359 535.67C662.968 535.63 663.579 535.67 664.178 535.788C664.44 535.827 664.684 535.954 664.873 536.15C665.063 536.346 665.188 536.602 665.23 536.879C665.24 537.176 665.176 537.47 665.046 537.733C664.916 537.996 664.723 538.218 664.488 538.378C663.99 538.706 663.426 538.904 662.842 538.956C661.8 539.057 660.75 538.946 659.748 538.627C658.807 538.256 657.844 537.953 656.864 537.72C657.677 538.386 658.6 538.881 659.587 539.179C660.648 539.609 661.783 539.793 662.916 539.718C663.625 539.67 664.313 539.44 664.921 539.048C665.273 538.812 665.56 538.481 665.751 538.088C665.943 537.695 666.032 537.255 666.01 536.814C665.959 536.362 665.77 535.941 665.473 535.614C665.176 535.286 664.787 535.071 664.364 535C663.694 534.873 663.012 534.842 662.334 534.908C661.22 534.983 660.118 535.204 659.055 535.565C658.054 535.825 657.123 536.324 656.332 537.024Z" fill="#263238"/>
<path d="M628.587 565.243C628.587 565.321 629.329 564.769 629.676 563.429C630.029 561.683 629.732 559.86 628.847 558.342C628.411 557.522 627.914 556.739 627.361 556.003C626.94 555.362 626.436 554.787 625.864 554.294C625.461 553.944 624.971 553.725 624.453 553.663C624.094 553.663 623.896 553.742 623.909 553.795C624.504 553.98 625.054 554.304 625.518 554.741C625.981 555.267 626.395 555.839 626.755 556.45C627.254 557.186 627.716 557.95 628.141 558.737C628.927 560.107 629.266 561.715 629.106 563.311C628.966 563.964 628.793 564.609 628.587 565.243Z" fill="#263238"/>
<path d="M644.427 552.677C644.637 552.677 644.575 550.312 642.88 548.182C641.185 546.053 639.007 545.554 638.994 545.764C638.982 545.974 640.776 546.763 642.274 548.721C643.771 550.68 644.204 552.717 644.427 552.677Z" fill="#263238"/>
<path d="M676.084 544.358C675.4 544.772 674.75 545.247 674.141 545.777C672.394 547.064 670.58 548.244 668.708 549.313C665.907 550.875 663.014 552.241 660.045 553.401C656.704 554.715 652.954 555.963 648.994 557.186C641.049 559.617 633.858 561.839 628.673 563.495L622.485 565.492C621.724 565.699 620.983 565.981 620.27 566.334C621.05 566.22 621.82 566.039 622.572 565.795L628.76 564.06C633.982 562.548 641.135 560.419 649.13 557.988C653.102 556.765 656.864 555.49 660.268 554.11C663.25 552.909 666.145 551.477 668.931 549.826C670.805 548.705 672.596 547.436 674.289 546.027C674.941 545.539 675.542 544.98 676.084 544.358Z" fill="#263238"/>
<path d="M677.717 544.989C676.541 544.429 675.287 544.074 674.004 543.937C670.873 543.309 667.634 543.727 664.735 545.133C663.158 545.99 661.796 547.233 660.763 548.761C659.934 549.987 659.241 551.31 658.696 552.704C658.117 553.952 657.701 555.279 657.458 556.647C658.112 555.478 658.686 554.261 659.179 553.006C660.231 550.824 661.889 547.63 665.069 545.948C667.85 544.643 670.919 544.188 673.93 544.634C676.257 544.778 677.692 545.12 677.717 544.989Z" fill="#263238"/>
<path d="M755.942 448.858C755.942 448.858 769.172 453.905 769.234 469.677C769.333 499.907 711.787 533.16 711.787 533.16L635.195 479.272L630.393 477.208C630.393 477.208 733.778 435.912 755.942 448.858Z" fill="#263238"/>
<path d="M673.992 506.479C674.698 506.071 675.366 505.591 675.985 505.046C677.222 504.087 679.029 502.641 681.232 500.84C685.613 497.252 691.578 492.139 698.001 486.291C704.423 480.442 710.067 474.948 714.089 470.887C716.094 468.863 717.702 467.193 718.791 466.024C719.39 465.452 719.937 464.823 720.425 464.144C719.77 464.638 719.153 465.188 718.581 465.787L713.717 470.453C709.609 474.396 703.904 479.824 697.493 485.66C691.083 491.495 685.192 496.674 680.898 500.393L675.787 504.757C675.145 505.278 674.545 505.854 673.992 506.479Z" fill="#455A64"/>
<path d="M734.322 460.135C731.829 459.72 729.278 459.968 726.897 460.858C722.9 462.094 720.214 464.354 720.338 464.512C720.462 464.67 723.259 462.843 727.12 461.647C730.981 460.451 734.322 460.398 734.322 460.135Z" fill="#455A64"/>
<path d="M727.764 455.377C725.938 456.062 724.356 457.329 723.234 459.005C721.192 461.634 720.648 464.459 720.846 464.486C721.044 464.512 721.91 462.041 723.841 459.531C725.771 457.02 727.838 455.601 727.764 455.377Z" fill="#455A64"/>
<path d="M760.15 550.995C760.15 550.903 759.234 550.706 758.17 551.626C756.929 552.869 756.148 554.543 755.967 556.344C755.701 558.131 755.943 559.961 756.66 561.602C757.205 562.837 757.799 563.429 757.898 563.363C757.997 563.297 757.588 562.601 757.205 561.391C756.708 559.823 756.56 558.154 756.771 556.515C756.944 554.888 757.574 553.354 758.578 552.112C759.358 551.166 760.162 551.166 760.15 550.995Z" fill="#263238"/>
<path d="M750.46 405.972L728.679 468.363C728.072 470.102 726.973 471.599 725.532 472.649C724.092 473.698 722.382 474.249 720.635 474.225L600.692 472.543V462.869L645.244 464.591L664.129 402.37C664.443 401.346 665.053 400.454 665.874 399.821C666.694 399.189 667.682 398.848 668.696 398.848L746.067 399.085C746.835 399.099 747.588 399.31 748.263 399.698C748.938 400.087 749.516 400.642 749.946 401.317C750.377 401.992 750.649 402.768 750.738 403.578C750.827 404.388 750.732 405.209 750.46 405.972Z" fill="#E0E0E0"/>
<path d="M750.46 405.971C750.46 405.971 750.46 405.971 750.46 405.774C750.526 405.587 750.575 405.393 750.609 405.196C750.787 404.423 750.787 403.616 750.609 402.843C750.359 401.82 749.81 400.907 749.04 400.236C748.271 399.566 747.321 399.171 746.327 399.111C745.51 399.111 744.606 399.111 743.666 399.111H711.391H688.781H676.071H669.401C668.289 398.994 667.17 399.256 666.208 399.86C665.251 400.499 664.543 401.484 664.216 402.633L645.38 464.748V464.893H645.232L600.68 463.184L600.878 462.974V472.648L600.692 472.45L676.108 473.515L708.891 474.001L716.452 474.107H720.165C721.347 474.181 722.53 473.998 723.642 473.568C724.723 473.15 725.709 472.496 726.538 471.65C727.368 470.803 728.021 469.782 728.457 468.652C729.249 466.391 730.028 464.17 730.796 462.015C736.872 444.705 741.785 430.72 745.176 421.047C746.884 416.236 748.195 412.491 749.099 409.941C750.002 407.391 750.485 406.09 750.485 406.09C750.485 406.09 750.052 407.404 749.173 410.033L745.287 421.047C741.921 430.734 737.057 444.705 731.018 462.054L728.692 468.718C728.243 469.883 727.571 470.937 726.719 471.813C725.867 472.688 724.853 473.367 723.741 473.804C722.59 474.253 721.365 474.449 720.14 474.383H716.428L708.879 474.277L676.096 473.844L600.668 472.805H600.482V462.711H600.68L645.232 464.446L645.046 464.591L663.931 402.488C664.277 401.26 665.034 400.208 666.06 399.531C667.075 398.898 668.253 398.622 669.426 398.743H676.096H688.806L711.416 398.848L743.691 399.005C744.631 399.005 745.522 399.005 746.364 399.005C747.379 399.076 748.346 399.487 749.127 400.179C749.907 400.871 750.461 401.809 750.708 402.856C750.89 403.633 750.89 404.446 750.708 405.222C750.645 405.479 750.563 405.73 750.46 405.971Z" fill="#263238"/>
<path d="M697.283 429.538C698.211 429.039 699.254 428.836 700.288 428.952C701.323 429.069 702.303 429.5 703.112 430.195C703.795 430.886 704.268 431.778 704.471 432.757C704.674 433.736 704.597 434.757 704.25 435.689C703.874 436.607 703.265 437.397 702.492 437.97C701.719 438.543 700.811 438.877 699.869 438.935C698.87 439.004 697.877 438.724 697.041 438.138C696.206 437.552 695.573 436.692 695.241 435.689C694.684 433.651 695.241 430.615 697.283 429.538Z" fill="white"/>
<path d="M724.694 536.511C724.694 536.511 616.607 462.987 611.843 460.096C607.783 457.638 596.918 450.541 586.213 453.682C575.508 456.823 565.905 467.049 561.103 481.914C558.368 490.431 557.069 504.954 556.462 515.85C555.645 528.897 559.639 541.77 567.6 551.744C571.123 556.396 575.793 559.918 581.09 561.917C582.216 562.285 583.391 562.601 584.592 562.877C605.048 567.595 626.074 557.843 637.571 539.219L640.046 535.144C640.046 535.144 710.834 562.745 711.935 562.364L724.694 536.511Z" fill="#263238"/>
<path d="M617.424 464.17C617.424 464.17 617.325 464.17 617.152 463.999L616.397 463.447C615.728 462.961 614.751 462.251 613.476 461.371C609.876 458.861 606.024 456.784 601.992 455.18C599.207 454.094 596.289 453.443 593.329 453.248C589.953 453.098 586.583 453.684 583.429 454.97C579.927 456.406 576.693 458.488 573.875 461.121C572.366 462.493 570.948 463.973 569.63 465.55C568.297 467.175 567.12 468.936 566.115 470.808C564.127 474.54 562.564 478.511 561.462 482.637C560.435 486.645 559.618 490.602 558.851 494.334C557.423 500.947 556.594 507.69 556.376 514.47C556.299 519.044 556.626 523.616 557.353 528.126C557.589 529.729 557.861 530.952 558.022 531.793L558.195 532.752C558.211 532.861 558.211 532.972 558.195 533.081C558.152 532.979 558.119 532.874 558.096 532.765C558.096 532.516 557.947 532.2 557.861 531.819C557.65 530.991 557.341 529.782 557.069 528.178C556.222 523.665 555.808 519.072 555.831 514.47C555.997 507.66 556.797 500.885 558.22 494.242C558.987 490.483 559.779 486.553 560.794 482.492C561.917 478.314 563.5 474.291 565.509 470.505C566.535 468.584 567.737 466.774 569.098 465.103C570.437 463.5 571.881 461.999 573.417 460.608C576.296 457.938 579.598 455.829 583.169 454.378C586.417 453.071 589.884 452.489 593.354 452.67C596.352 452.905 599.302 453.595 602.115 454.72C606.168 456.368 610.019 458.526 613.588 461.147C614.825 462.067 615.803 462.817 616.446 463.342L617.164 463.947C617.261 464.007 617.349 464.082 617.424 464.17Z" fill="#455A64"/>
<path d="M590.829 515.758C591.022 515.866 591.22 515.963 591.423 516.047L593.193 516.783L600.049 519.622L625.542 529.821C636.371 534.106 649.353 539.219 663.906 544.844C678.46 550.47 694.585 556.673 711.812 562.824L712.133 562.929L712.282 562.627C714.98 557.133 717.838 551.35 720.734 545.475L725.041 536.708L725.214 536.367L724.905 536.17L642.373 480.521L617.622 463.907L610.89 459.439L609.132 458.308C608.937 458.175 608.734 458.052 608.526 457.94C608.526 457.94 608.712 458.098 609.095 458.374L610.815 459.583L617.473 464.17L642.138 480.994L724.534 536.866L724.397 536.327C723.036 539.101 721.576 542.071 720.091 545.068L711.651 562.22L712.109 562.009C694.894 555.832 678.757 549.694 664.191 544.121L625.827 529.282L600.247 519.32L593.341 516.691L591.547 516.021L590.829 515.758Z" fill="#455A64"/>
<path d="M596.423 271.831C594.396 267.965 592.785 263.869 591.621 259.62C590.459 255.338 590.686 250.764 592.265 246.635C593.267 244.282 594.851 242.219 595.643 239.774C596.72 236.409 596.274 232.44 598.242 229.562C601.299 225.053 607.858 226.105 612.598 223.752C616.31 221.912 618.872 217.956 622.745 216.629C626.136 215.472 629.837 216.629 633.104 218.074C636.371 219.52 639.576 221.452 643.103 221.938C645.638 222.09 648.179 222.09 650.714 221.938C653.284 221.825 655.797 222.766 657.731 224.567C659.513 226.473 659.884 230.008 657.954 231.757C662.396 230.955 666.616 235.7 666.517 240.444C666.418 245.189 663.065 249.434 658.968 251.432C654.872 253.43 650.207 253.548 645.714 253.167C633.005 252.116 620.233 246.99 611.583 237.053" fill="#749F82"/>
<path d="M599.158 254.941L590.495 321.775C590.145 324.468 590.314 327.209 590.992 329.83C591.669 332.452 592.842 334.9 594.438 337.025C596.034 339.151 598.021 340.909 600.277 342.194C602.532 343.479 605.011 344.264 607.561 344.5C612.396 344.946 617.207 343.4 620.999 340.183C624.791 336.966 627.272 332.323 627.931 327.217C628.574 322.183 629.168 318.016 629.168 317.477C629.168 317.477 645.393 318.213 648.734 301.548C650.343 293.491 652.447 276.575 654.08 261.316C654.949 253.409 652.988 245.444 648.587 239C644.186 232.556 637.666 228.103 630.319 226.525L628.797 226.21C612.239 223.726 601.014 237.29 599.158 254.941Z" fill="#FFBE9D"/>
<path d="M629.317 317.215C622.027 315.823 615.29 312.163 609.961 306.7C609.961 306.7 612.548 319.764 628.525 321.591L629.317 317.215Z" fill="#EB996E"/>
<path d="M647.1 275.524C646.989 276.148 646.652 276.701 646.161 277.064C645.671 277.428 645.067 277.573 644.477 277.469C644.188 277.432 643.909 277.334 643.656 277.181C643.404 277.028 643.182 276.824 643.005 276.579C642.828 276.334 642.698 276.055 642.623 275.756C642.549 275.458 642.531 275.146 642.571 274.84C642.68 274.217 643.014 273.663 643.501 273.297C643.989 272.931 644.592 272.782 645.182 272.882C645.473 272.918 645.754 273.015 646.009 273.168C646.264 273.321 646.488 273.526 646.667 273.773C646.845 274.019 646.976 274.301 647.05 274.602C647.125 274.902 647.142 275.216 647.1 275.524Z" fill="#263238"/>
<path d="M649.229 268.795C648.895 269.044 647.447 267.349 645.021 266.849C642.596 266.35 640.591 267.244 640.393 266.849C640.294 266.678 640.677 266.179 641.63 265.745C642.799 265.207 644.095 265.065 645.343 265.338C646.604 265.598 647.753 266.279 648.622 267.283C649.254 268.072 649.402 268.689 649.229 268.795Z" fill="#263238"/>
<path d="M624.552 271.384C624.441 272.008 624.104 272.56 623.614 272.924C623.123 273.287 622.519 273.433 621.929 273.329C621.639 273.293 621.36 273.197 621.106 273.044C620.853 272.892 620.63 272.687 620.453 272.442C620.275 272.197 620.146 271.917 620.072 271.617C619.998 271.318 619.981 271.006 620.023 270.7C620.132 270.077 620.466 269.525 620.954 269.161C621.442 268.797 622.046 268.651 622.634 268.755C622.924 268.791 623.204 268.887 623.458 269.039C623.712 269.192 623.935 269.396 624.114 269.641C624.292 269.886 624.423 270.166 624.499 270.465C624.574 270.765 624.592 271.077 624.552 271.384Z" fill="#263238"/>
<path d="M625.381 264.234C625.035 264.483 623.587 262.788 621.161 262.275C618.736 261.763 616.731 262.683 616.533 262.275C616.434 262.105 616.818 261.605 617.771 261.171C618.939 260.633 620.236 260.491 621.483 260.764C622.74 261.025 623.888 261.702 624.763 262.696C625.394 263.511 625.542 264.115 625.381 264.234Z" fill="#263238"/>
<path d="M630.567 285.145C631.921 284.985 633.29 285.012 634.638 285.224C635.269 285.289 635.876 285.224 636.061 284.856C636.259 284.193 636.259 283.481 636.061 282.818C635.789 281.11 635.492 279.322 635.183 277.443C633.945 269.793 633.252 263.563 633.537 263.511C633.821 263.458 635.034 269.622 636.235 277.272C636.507 279.151 636.779 280.939 637.039 282.661C637.271 283.531 637.214 284.459 636.878 285.289C636.74 285.507 636.556 285.687 636.342 285.817C636.127 285.947 635.887 286.023 635.641 286.039C635.28 286.062 634.918 286.036 634.564 285.96C633.204 285.869 631.861 285.595 630.567 285.145Z" fill="#263238"/>
<path d="M623.117 285.408C623.513 285.408 622.993 288.26 624.874 290.665C626.755 293.07 629.601 293.412 629.539 293.806C629.539 293.99 628.822 294.214 627.634 294.003C626.09 293.695 624.697 292.82 623.698 291.532C622.768 290.288 622.325 288.711 622.461 287.129C622.572 285.986 622.943 285.355 623.117 285.408Z" fill="#263238"/>
<path d="M627.894 254.298C627.522 254.942 625.171 254.1 622.263 253.864C619.355 253.627 616.917 253.956 616.657 253.259C616.545 252.917 617.065 252.352 618.117 251.866C619.509 251.307 621.002 251.089 622.485 251.228C623.968 251.367 625.402 251.859 626.681 252.668C627.634 253.325 628.054 253.995 627.894 254.298Z" fill="#749F82"/>
<path d="M649.798 261.171C649.254 261.671 647.707 260.711 645.714 260.251C643.722 259.791 642.002 259.857 641.655 259.174C641.544 258.832 641.915 258.306 642.769 257.859C643.888 257.41 645.108 257.323 646.273 257.611C647.439 257.899 648.498 258.548 649.315 259.476C649.86 260.278 649.984 260.935 649.798 261.171Z" fill="#749F82"/>
<path d="M598.118 267.585C597.871 267.401 587.946 261.894 586.139 273.395C584.332 284.895 595.581 284.448 595.643 284.12C595.705 283.791 598.118 267.585 598.118 267.585Z" fill="#FFBE9D"/>
<path d="M593.019 279.178C593.019 279.178 592.809 279.283 592.475 279.375C591.993 279.503 591.483 279.428 591.052 279.165C589.975 278.507 589.319 276.418 589.591 274.328C589.722 273.338 590.056 272.392 590.569 271.555C590.727 271.211 590.959 270.912 591.248 270.683C591.536 270.454 591.872 270.303 592.227 270.24C592.454 270.219 592.68 270.282 592.868 270.418C593.055 270.555 593.192 270.757 593.255 270.989C593.354 271.344 593.255 271.555 593.255 271.581C593.255 271.607 593.514 271.436 593.502 270.95C593.487 270.653 593.378 270.371 593.193 270.148C592.931 269.856 592.57 269.686 592.19 269.675C591.731 269.689 591.282 269.828 590.888 270.079C590.494 270.33 590.167 270.684 589.938 271.108C589.321 272.021 588.926 273.082 588.787 274.196C588.49 276.523 589.27 278.889 590.755 279.651C591.033 279.79 591.338 279.863 591.646 279.863C591.954 279.863 592.258 279.79 592.537 279.651C592.958 279.454 593.057 279.204 593.019 279.178Z" fill="#EB996E"/>
<path d="M657.223 245.794C655.367 250.039 645.813 251.682 638.809 249.434C632.361 247.371 630.01 243.02 625.913 239.222C623.315 236.817 623.315 236.817 619.07 236.357C615.642 235.976 612.882 239.603 610.296 242.008C611.744 251.209 607.919 260.199 604.182 268.571C603.868 269.549 603.253 270.387 602.437 270.95C600.977 271.712 599.22 270.503 598.341 269.031C597.108 266.554 596.579 263.751 596.819 260.961C596.853 254.6 598.077 248.31 600.42 242.455C602.768 236.558 606.703 231.529 611.731 227.997C618.174 223.815 625.896 222.457 633.264 224.212C640.59 226.013 647.194 230.221 652.137 236.238C654.551 238.901 656.3 242.164 657.223 245.728" fill="#749F82"/>
<path d="M635.245 273.579C635.344 273.579 635.245 272.593 635.74 270.95C636.372 268.585 637.72 266.506 639.576 265.036C640.934 263.969 642.52 263.277 644.192 263.023C645.864 262.768 647.569 262.958 649.155 263.577C651.026 264.305 652.65 265.609 653.82 267.323C655.082 269.151 655.762 271.358 655.762 273.625C655.762 275.891 655.082 278.099 653.82 279.927C652.65 281.64 651.026 282.945 649.155 283.673C647.568 284.292 645.862 284.481 644.19 284.224C642.518 283.967 640.932 283.272 639.576 282.201C637.719 280.737 636.37 278.662 635.74 276.299C635.306 274.617 635.344 273.671 635.245 273.671C635.215 273.911 635.215 274.154 635.245 274.394C635.24 275.08 635.315 275.764 635.467 276.431C635.99 278.953 637.33 281.2 639.254 282.779C640.395 283.705 641.699 284.379 643.088 284.761C644.478 285.144 645.926 285.227 647.347 285.007C648.767 284.787 650.132 284.267 651.361 283.478C652.589 282.689 653.657 281.647 654.501 280.413C655.89 278.438 656.64 276.038 656.64 273.572C656.64 271.106 655.89 268.707 654.501 266.731C653.649 265.498 652.573 264.459 651.337 263.675C650.101 262.891 648.729 262.379 647.303 262.168C645.876 261.957 644.425 262.052 643.034 262.448C641.643 262.843 640.341 263.531 639.205 264.47C637.282 266.045 635.941 268.287 635.418 270.806C635.266 271.477 635.191 272.165 635.195 272.856C635.18 273.098 635.197 273.341 635.245 273.579Z" fill="#263238"/>
<path d="M609.566 268.821C609.665 268.821 609.566 267.835 610.061 266.192C610.691 263.825 612.039 261.746 613.897 260.278C615.254 259.209 616.84 258.516 618.512 258.261C620.185 258.006 621.89 258.198 623.476 258.819C625.346 259.542 626.97 260.842 628.141 262.551C629.404 264.381 630.085 266.591 630.085 268.86C630.085 271.129 629.404 273.339 628.141 275.169C626.975 276.883 625.349 278.184 623.476 278.902C621.89 279.522 620.185 279.714 618.512 279.459C616.84 279.205 615.254 278.512 613.897 277.443C612.039 275.974 610.691 273.895 610.061 271.528C609.627 269.859 609.665 268.9 609.566 268.9C609.537 269.135 609.537 269.374 609.566 269.609C609.562 270.3 609.637 270.988 609.788 271.66C610.311 274.182 611.651 276.429 613.575 278.008C614.713 278.946 616.016 279.633 617.408 280.027C618.8 280.422 620.252 280.517 621.678 280.306C623.105 280.095 624.478 279.583 625.715 278.8C626.953 278.018 628.03 276.979 628.884 275.747C630.27 273.768 631.018 271.367 631.018 268.9C631.018 266.433 630.27 264.031 628.884 262.052C628.032 260.819 626.956 259.779 625.72 258.996C624.483 258.212 623.112 257.699 621.685 257.489C620.259 257.278 618.808 257.373 617.417 257.768C616.026 258.164 614.724 258.852 613.588 259.791C611.666 261.373 610.326 263.619 609.801 266.139C609.649 266.811 609.574 267.499 609.578 268.19C609.55 268.399 609.546 268.611 609.566 268.821Z" fill="#263238"/>
<path d="M630.728 269.215C630.839 269.439 632.213 268.755 633.809 269.281C635.405 269.807 636.21 271.16 636.42 271.029C636.631 270.897 636.42 270.543 636.111 269.964C635.618 269.208 634.898 268.651 634.068 268.386C633.238 268.121 632.349 268.163 631.544 268.505C630.938 268.768 630.666 269.11 630.728 269.215Z" fill="#263238"/>
<path d="M595.024 265.877C595.024 266.14 598.477 266.285 602.734 266.232C606.991 266.179 610.432 265.903 610.432 265.64C610.432 265.377 606.979 265.233 602.722 265.298C598.465 265.364 595.024 265.614 595.024 265.877Z" fill="#263238"/>
<path d="M662.334 234.819C662.333 235.19 662.275 235.559 662.161 235.91C661.854 236.881 661.291 237.739 660.54 238.381C659.43 239.349 658.072 239.939 656.642 240.076C654.917 240.224 653.182 240.126 651.481 239.787C648.391 239.303 645.326 238.649 642.299 237.829C641.135 237.5 640.195 237.224 639.564 237.014L638.821 236.764L638.573 236.659C638.573 236.659 638.673 236.659 638.833 236.659L639.588 236.856L642.336 237.579C644.662 238.17 647.905 238.893 651.518 239.472C653.198 239.808 654.912 239.909 656.617 239.774C658.007 239.653 659.333 239.1 660.429 238.184C661.166 237.573 661.731 236.759 662.062 235.831C662.285 235.213 662.297 234.806 662.334 234.819Z" fill="white"/>
<path d="M664.735 237.421C664.583 238.518 664.27 239.582 663.807 240.576C662.734 243.016 660.996 245.058 658.819 246.438C656.641 247.818 654.124 248.473 651.592 248.317C650.554 248.28 649.527 248.072 648.548 247.699C648.824 247.734 649.097 247.791 649.365 247.87C650.104 248.017 650.853 248.104 651.605 248.133C654.092 248.23 656.551 247.558 658.686 246.201C660.821 244.843 662.54 242.857 663.634 240.484C663.98 239.773 664.261 239.029 664.475 238.263C664.544 237.976 664.631 237.695 664.735 237.421Z" fill="white"/>
</svg>
